<?xml version="1.0" standalone="no"?>
<!DOCTYPE svg PUBLIC "-//W3C//DTD SVG 20010904//EN"
 "http://www.w3.org/TR/2001/REC-SVG-20010904/DTD/svg10.dtd">
<svg version="1.0" xmlns="http://www.w3.org/2000/svg"
 width="686.000000pt" height="686.000000pt" viewBox="0 0 686.000000 686.000000"
 preserveAspectRatio="xMidYMid meet">
<metadata>
Created by potrace 1.14, written by Peter Selinger 2001-2017
</metadata>
<g transform="translate(0.000000,686.000000) scale(0.100000,-0.100000)"
fill="#000000" stroke="none">
<path d="M3858 6732 c-7 -2 -20 -6 -28 -9 -8 -3 -42 -6 -75 -7 -35 -1 -81 -11
-110 -23 -27 -11 -76 -27 -109 -34 -32 -7 -64 -19 -72 -26 -7 -8 -30 -21 -49
-29 -20 -8 -59 -30 -86 -49 -38 -27 -59 -35 -93 -35 -25 0 -48 -4 -51 -10 -3
-5 -19 -10 -35 -10 -33 0 -80 -19 -80 -32 0 -4 -3 -7 -7 -6 -12 3 -104 -58
-97 -64 3 -3 -4 -9 -15 -13 -12 -3 -21 -11 -21 -16 0 -5 -16 -25 -35 -45 -19
-19 -35 -39 -35 -45 0 -6 -4 -7 -10 -4 -5 3 -16 -7 -22 -22 -7 -15 -21 -37
-30 -47 -10 -11 -18 -24 -18 -28 0 -5 -11 -26 -25 -48 -14 -22 -28 -53 -30
-68 -12 -71 -31 -140 -46 -163 -8 -13 -23 -41 -32 -61 -10 -20 -22 -40 -28
-44 -6 -3 -9 -16 -7 -28 1 -12 -5 -34 -15 -49 -10 -15 -14 -27 -10 -27 5 0 2
-4 -6 -9 -7 -5 -15 -21 -16 -35 -2 -15 -9 -34 -17 -43 -7 -9 -8 -14 -2 -10 7
4 14 0 18 -8 3 -8 -3 -19 -14 -25 -23 -13 -66 -141 -55 -167 5 -10 9 -22 9
-26 1 -10 27 -27 41 -27 6 0 3 5 -5 10 -9 6 -10 10 -3 10 6 0 15 -4 18 -10 3
-5 10 -10 14 -10 10 0 36 60 52 120 7 25 16 50 19 55 7 9 21 57 25 80 0 6 4
17 7 25 4 8 17 51 29 95 12 44 28 92 36 108 7 15 10 27 6 27 -5 0 0 5 10 11
13 8 24 7 42 -5 21 -14 53 -15 74 -1 5 3 24 7 42 9 18 2 35 9 37 15 2 6 10 11
18 11 9 0 13 4 10 9 -3 4 5 13 18 19 12 5 31 26 40 46 9 20 21 36 26 36 5 0
12 9 15 20 4 11 17 31 30 44 30 30 88 28 139 -3 20 -13 36 -20 36 -17 0 3 16
-11 35 -31 19 -20 35 -32 35 -27 1 5 10 -2 21 -15 12 -15 32 -25 49 -26 16 -1
33 -4 36 -8 13 -13 71 -7 84 8 7 8 19 15 26 15 8 0 14 5 14 10 0 6 7 10 16 10
12 0 15 7 12 25 -3 13 -1 23 5 22 16 -3 18 102 2 150 -18 51 -19 67 -5 58 6
-3 10 -2 10 4 0 6 11 7 28 2 27 -8 40 -8 102 5 70 14 222 20 238 10 6 -3 13
-2 17 4 4 6 12 7 18 3 7 -4 18 -9 25 -10 6 -2 20 -5 30 -7 17 -4 18 -26 2 -36
-9 -6 -21 -51 -23 -87 -1 -13 -4 -23 -7 -23 -3 0 -6 -21 -7 -47 -1 -37 4 -57
26 -88 15 -22 31 -40 36 -40 6 0 16 -4 22 -8 16 -10 93 -6 93 5 0 4 9 8 20 8
11 0 20 5 20 10 0 6 4 10 9 10 14 0 101 86 101 99 0 6 7 11 15 11 17 0 66 28
77 44 8 12 58 -9 58 -23 0 -6 7 -7 17 -4 10 4 14 2 10 -4 -6 -9 23 -28 46 -31
4 -1 18 -13 31 -27 13 -13 34 -26 47 -27 13 -2 29 -9 34 -16 6 -7 20 -14 33
-17 13 -2 32 -7 42 -10 37 -12 63 -14 74 -7 6 3 21 8 32 9 24 4 35 -19 80
-157 13 -41 29 -83 34 -92 6 -10 10 -24 10 -32 0 -8 8 -17 17 -20 11 -5 14
-10 6 -14 -7 -5 -7 -15 -2 -30 5 -14 13 -20 20 -16 8 4 9 3 5 -5 -4 -6 0 -37
10 -69 10 -31 18 -73 19 -92 0 -19 9 -51 19 -70 11 -19 20 -57 22 -85 3 -50 9
-87 20 -135 7 -25 12 -59 17 -95 1 -11 8 -24 15 -28 7 -5 10 -12 7 -18 -4 -5
2 -6 11 -2 12 4 15 3 10 -5 -4 -7 -2 -12 4 -12 7 0 5 -7 -4 -16 -9 -8 -16 -20
-16 -25 0 -5 -6 -9 -14 -9 -8 0 -16 -7 -20 -15 -7 -19 3 -47 15 -39 5 3 9 0 9
-5 0 -14 55 -14 83 0 12 6 36 24 52 39 32 29 59 42 69 33 3 -4 0 -13 -7 -21
-10 -13 -9 -14 11 -4 12 7 31 17 43 23 12 6 24 8 27 5 3 -3 -1 -6 -8 -6 -7 0
-10 -3 -7 -6 4 -4 12 -2 20 4 7 6 28 14 47 17 19 3 36 10 38 15 2 4 15 2 30
-5 18 -10 30 -11 39 -4 7 7 33 8 65 4 29 -3 58 -6 65 -7 6 -1 14 -16 18 -35 4
-22 10 -31 18 -27 7 4 9 4 5 0 -4 -5 -2 -20 4 -35 5 -14 16 -62 23 -105 10
-64 10 -88 1 -120 -7 -23 -13 -44 -14 -49 -7 -60 -55 -185 -89 -236 -12 -18
-20 -37 -17 -42 3 -5 1 -9 -5 -9 -6 0 -28 -19 -50 -42 -37 -38 -44 -41 -93
-42 -45 0 -62 5 -110 37 -32 21 -58 35 -58 31 0 -3 -16 8 -36 26 -26 22 -39
28 -44 20 -5 -7 -9 -8 -11 -2 -3 6 -13 6 -28 1 -21 -8 -23 -14 -18 -50 4 -32
1 -45 -18 -64 -12 -14 -29 -25 -36 -25 -15 -1 -59 -30 -45 -30 11 0 -85 -54
-151 -85 -29 -14 -53 -29 -53 -33 0 -5 -19 -14 -42 -21 -55 -16 -111 -42 -120
-55 -4 -5 -3 -17 2 -26 6 -12 4 -16 -10 -16 -10 0 -16 6 -13 13 8 20 -26 27
-46 9 -10 -9 -21 -16 -26 -16 -4 0 -14 -8 -22 -17 -8 -10 -12 -12 -8 -5 3 6 4
12 2 12 -5 0 -116 -38 -137 -46 -8 -4 -22 -8 -30 -9 -8 -2 -42 -12 -75 -24
-33 -11 -68 -21 -78 -21 -10 0 -16 -4 -13 -8 3 -5 -11 -7 -30 -6 -22 2 -34 -1
-34 -10 0 -7 -6 -13 -12 -13 -7 0 -29 -4 -48 -8 -19 -4 -46 -8 -60 -10 -14 -1
-38 -8 -53 -14 -16 -6 -39 -11 -53 -11 -14 0 -36 -7 -49 -16 -13 -9 -37 -14
-52 -13 -15 2 -34 0 -41 -4 -6 -5 -12 -6 -12 -3 0 3 -12 1 -27 -6 -16 -6 -41
-12 -58 -13 -16 -2 -46 -6 -65 -10 -19 -4 -51 -9 -70 -10 -19 -2 -37 -4 -40
-5 -3 -1 -9 -2 -14 -1 -5 1 -16 -1 -25 -5 -9 -4 -33 -9 -55 -11 -21 -2 -46 -8
-56 -13 -26 -14 -30 -13 -39 13 -6 14 -4 31 5 48 7 15 10 29 7 33 -4 3 -1 6 5
6 12 0 7 43 -10 74 -6 12 -10 21 -9 21 1 0 0 7 -3 15 -2 8 -7 27 -10 41 -11
50 -123 149 -176 155 -8 1 -27 7 -42 12 -21 9 -27 8 -32 -4 -4 -12 -9 -12 -25
-2 -15 9 -29 9 -63 -1 -23 -7 -50 -17 -58 -22 -8 -4 -35 -17 -59 -29 -56 -26
-176 -147 -162 -164 7 -8 1 -20 -19 -40 -16 -15 -29 -35 -28 -44 5 -43 -15
-142 -28 -143 -54 -3 -95 -1 -101 4 -3 4 -18 7 -32 7 -14 0 -41 9 -60 21 -20
12 -57 22 -86 24 -29 2 -69 11 -90 19 -20 9 -46 16 -55 16 -10 0 -20 4 -22 8
-4 11 -123 82 -136 82 -6 0 -8 -8 -5 -18 7 -27 -21 -47 -37 -27 -10 12 -10 21
-2 41 11 23 10 25 -18 31 -17 3 -30 10 -30 15 0 5 6 6 12 2 9 -5 9 -2 -1 9 -7
9 -10 17 -6 17 4 0 -5 10 -21 22 -16 13 -31 27 -33 31 -2 5 -19 25 -38 45 -48
49 -66 79 -57 94 4 7 4 10 -1 6 -8 -8 -43 60 -48 93 -2 10 -10 26 -19 36 -15
17 -33 70 -30 86 1 4 -4 20 -11 35 -8 15 -12 42 -10 60 2 18 0 32 -6 32 -6 0
-11 9 -11 19 0 11 -6 22 -12 24 -7 3 -4 6 7 6 16 1 21 7 20 29 -1 15 3 33 8
40 5 6 7 12 4 12 -3 0 -2 14 3 30 5 17 5 30 0 30 -9 0 20 118 43 173 9 20 13
37 10 37 -3 0 0 7 7 15 7 8 10 24 7 34 -3 14 -1 18 9 14 8 -3 14 0 14 7 0 6 7
18 16 27 8 9 14 25 12 37 -2 15 11 35 37 62 22 21 60 63 83 92 24 28 48 49 53
46 5 -3 9 2 9 10 0 8 9 18 20 21 11 3 25 15 31 26 5 11 14 17 18 14 5 -2 21 7
35 20 15 14 30 25 34 25 4 0 18 10 32 23 14 12 51 35 82 51 31 16 54 34 51 39
-3 5 4 6 17 2 17 -5 21 -4 15 5 -5 8 -4 11 3 7 13 -9 44 2 37 14 -3 4 -13 5
-22 2 -12 -5 -15 -2 -11 14 5 18 1 20 -36 17 -52 -5 -249 -101 -240 -117 5 -9
4 -9 -6 0 -12 11 -44 -6 -96 -52 -7 -5 -24 -19 -40 -30 -46 -33 -114 -103
-114 -118 0 -8 -11 -19 -23 -24 -13 -6 -36 -35 -52 -65 -15 -29 -36 -64 -46
-77 -11 -13 -19 -30 -19 -38 0 -8 -13 -42 -30 -76 -16 -34 -34 -84 -41 -112
-6 -27 -16 -68 -22 -89 -9 -31 -9 -40 1 -44 10 -3 10 -7 0 -20 -7 -8 -13 -22
-14 -31 -1 -9 -2 -26 -3 -39 0 -15 -5 -21 -13 -16 -7 5 -8 3 -3 -6 4 -7 9 -42
11 -79 5 -83 17 -162 29 -181 5 -8 11 -24 13 -35 1 -11 9 -26 16 -33 16 -16 9
-62 -9 -62 -23 0 -39 -62 -39 -150 0 -77 3 -90 32 -137 29 -49 72 -100 72 -87
0 4 6 1 13 -5 8 -6 17 -8 20 -4 4 3 7 -1 7 -10 0 -25 95 -46 129 -28 14 8 25
3 51 -21 37 -33 34 -40 -30 -53 -19 -4 -51 -18 -70 -31 -19 -13 -40 -24 -47
-24 -7 0 -13 -4 -13 -9 0 -5 -9 -13 -20 -16 -11 -3 -20 -13 -20 -21 0 -8 -4
-13 -9 -9 -5 3 -16 -3 -23 -13 -7 -11 -23 -22 -35 -26 -31 -10 -74 -69 -62
-87 15 -24 10 -33 -10 -15 -18 16 -20 15 -41 -21 -13 -21 -34 -48 -46 -61 -13
-12 -27 -35 -31 -49 -3 -15 -15 -36 -25 -48 -30 -31 -58 -95 -58 -131 0 -18
-5 -36 -11 -39 -5 -4 -8 -12 -6 -18 2 -7 -2 -19 -10 -28 -19 -23 -32 -110 -32
-231 0 -115 24 -202 60 -213 39 -13 8 -35 -49 -35 -13 0 -21 -4 -18 -8 2 -4
-3 -8 -12 -9 -36 -3 -159 -24 -196 -34 -22 -6 -50 -12 -63 -13 -39 -4 -155
-123 -173 -177 -18 -54 0 -105 40 -113 18 -3 30 -12 30 -21 0 -10 10 -15 28
-16 15 0 36 -3 47 -5 30 -7 206 -5 218 3 11 6 32 10 123 17 106 9 167 23 158
37 -3 5 5 9 18 9 13 0 40 9 60 20 37 19 38 19 48 1 5 -11 10 -26 10 -33 0 -7
9 -19 20 -26 11 -7 20 -20 20 -30 0 -21 43 -66 53 -55 4 3 7 1 7 -6 0 -7 6
-19 14 -27 14 -14 114 -71 128 -73 38 -6 68 -15 68 -20 0 -11 154 -16 172 -5
5 3 21 3 36 -1 22 -5 24 -8 10 -16 -15 -8 -15 -13 3 -60 23 -59 85 -146 146
-205 24 -23 43 -49 43 -58 0 -9 6 -17 13 -17 6 -1 17 -2 22 -4 6 -1 15 -3 20
-4 6 -1 4 -5 -3 -10 -9 -6 0 -18 35 -47 26 -21 51 -44 56 -50 4 -7 22 -16 39
-20 18 -3 51 -18 73 -33 63 -41 76 -46 181 -81 54 -18 120 -43 145 -56 26 -12
73 -30 105 -37 33 -8 84 -22 114 -31 74 -22 248 -44 338 -44 40 1 74 -1 76 -3
2 -2 7 -28 10 -58 3 -30 11 -58 18 -63 10 -6 9 -8 -2 -8 -10 0 -11 -3 -4 -8 7
-4 13 -16 15 -27 4 -20 43 -44 82 -50 12 -2 31 -6 42 -9 11 -2 26 -5 33 -5 9
-1 5 -14 -12 -44 -13 -23 -33 -57 -43 -76 -10 -19 -26 -39 -35 -44 -15 -10
-20 -8 -63 31 -8 7 -15 11 -15 8 0 -3 -25 4 -55 14 -61 21 -138 28 -173 16
-52 -17 -67 -136 -24 -191 11 -14 19 -35 17 -45 -3 -18 5 -25 28 -21 4 0 7 -5
7 -12 0 -6 16 -25 35 -40 19 -15 35 -34 35 -41 0 -8 19 -29 43 -49 23 -19 58
-49 77 -67 57 -53 138 -100 170 -100 29 0 70 25 70 44 0 5 15 23 33 40 36 33
93 121 102 159 3 12 44 58 91 102 46 43 84 83 84 87 0 5 -5 6 -12 2 -7 -4 -8
-3 -4 4 4 6 13 9 20 6 15 -6 158 131 148 141 -3 3 2 5 11 5 10 0 17 6 17 13 0
22 79 99 93 91 6 -4 9 -4 5 0 -3 4 5 20 20 35 23 26 29 27 61 19 20 -6 60 -7
91 -3 111 15 133 14 124 -10 -3 -7 1 -19 8 -26 7 -8 19 -26 27 -42 8 -15 18
-27 23 -27 5 0 7 -4 3 -10 -6 -10 37 -42 64 -48 40 -8 76 -2 89 15 52 67 78
232 47 293 -20 38 -19 40 13 40 41 0 72 11 72 24 0 7 11 23 24 35 21 20 27 21
45 9 17 -10 25 -10 41 0 11 6 36 15 57 18 20 3 46 12 57 19 17 10 77 26 101
26 28 0 129 61 119 72 -3 3 4 3 15 0 12 -3 29 1 39 10 9 8 39 24 65 36 27 11
66 34 87 51 21 16 41 30 45 30 4 0 24 14 44 30 56 48 56 48 106 71 68 32 325
287 325 323 0 14 4 26 9 26 5 0 14 15 21 32 6 18 18 45 26 60 8 14 11 33 8 42
-4 9 -1 16 6 16 7 0 10 6 7 14 -4 9 1 16 10 18 9 2 17 16 19 33 9 73 10 125 2
125 -5 0 -2 10 6 22 9 15 13 43 11 78 -11 187 -15 218 -34 260 -11 25 -21 53
-21 63 0 9 -4 17 -8 17 -4 0 -9 8 -10 18 -4 37 -8 51 -21 66 -7 9 -10 16 -7
16 7 0 -49 86 -70 108 -7 6 -17 12 -22 12 -6 0 -15 14 -21 30 -5 17 -17 30
-25 30 -9 0 -25 18 -36 40 -15 30 -29 42 -51 47 -16 3 -32 9 -35 14 -2 4 -11
6 -19 2 -9 -3 -21 -1 -28 4 -6 6 -28 13 -47 17 -19 4 -45 9 -57 12 -14 3 -27
-3 -36 -16 -12 -17 -26 -21 -66 -22 -28 0 -49 -3 -47 -7 2 -3 -21 -7 -52 -7
-77 -1 -112 -8 -123 -25 -7 -12 -9 -12 -9 1 0 12 -2 12 -9 2 -4 -8 -11 -13
-15 -13 -3 1 -20 -6 -36 -14 -17 -9 -30 -13 -30 -10 0 10 -65 -27 -73 -42 -11
-18 -35 -1 -48 35 -5 13 -13 20 -19 17 -5 -3 -7 0 -4 8 3 8 -2 20 -11 27 -8 7
-15 20 -15 30 0 9 -11 38 -25 64 -30 56 -20 65 47 43 29 -11 47 -12 55 -5 7 6
20 8 28 4 8 -3 15 -1 15 3 0 5 8 8 18 6 9 -2 23 -4 30 -4 7 -1 10 -6 7 -11 -4
-6 11 -4 32 4 21 8 63 17 93 21 30 3 64 7 75 9 11 3 24 5 29 5 4 1 6 7 3 14
-4 10 2 13 20 9 18 -3 24 -1 19 7 -4 7 -2 19 5 27 7 9 13 28 14 42 1 15 5 37
9 50 5 14 3 22 -4 22 -7 0 -4 7 5 16 15 15 17 15 31 -5 9 -12 20 -19 25 -16 5
4 9 1 9 -6 0 -8 4 -8 16 1 12 11 15 11 12 0 -3 -13 49 -33 63 -24 4 2 18 -16
30 -41 12 -25 26 -45 31 -45 4 0 8 -7 8 -16 0 -8 5 -12 10 -9 6 3 10 2 10 -4
0 -15 76 -33 135 -33 72 0 156 31 195 73 78 84 105 202 70 303 -34 98 -104
141 -226 137 -86 -3 -89 -4 -125 -34 -23 -18 -37 -24 -48 -18 -9 5 -36 10 -61
12 -25 2 -48 8 -52 13 -4 6 -27 10 -52 10 -49 -1 -51 2 -46 63 1 20 -27 75
-33 64 -1 -2 -18 3 -37 12 -51 24 -179 67 -225 76 -23 4 -46 11 -53 15 -7 4
-19 3 -27 -4 -10 -8 -16 -7 -23 5 -5 10 -24 18 -43 19 -38 3 -100 18 -201 49
-69 21 -88 37 -44 37 12 0 35 11 50 25 15 14 31 25 37 25 5 0 30 19 56 43 26
23 44 37 40 31 -4 -7 -1 -14 6 -17 77 -33 136 -52 157 -51 14 1 32 -2 41 -7
11 -6 21 -4 29 6 6 7 18 11 26 8 8 -3 21 0 29 7 8 7 15 9 15 6 0 -4 9 -2 20 4
11 6 18 15 15 21 -4 5 -1 9 5 9 14 0 100 80 100 93 0 5 11 20 25 33 14 13 28
37 31 54 4 16 10 30 14 30 4 0 11 12 15 28 3 15 13 34 21 43 8 8 15 28 16 42
1 15 5 27 8 27 3 0 7 8 8 18 1 9 3 26 5 37 2 11 -3 26 -12 33 -14 11 -13 12 7
7 19 -5 22 -2 22 19 0 14 -4 26 -10 26 -16 0 -11 27 6 34 13 5 15 15 9 54 -4
26 -9 59 -10 73 -1 15 -6 32 -10 38 -4 7 -9 27 -12 44 -3 18 -9 37 -14 43 -5
6 -7 13 -5 15 3 2 -7 27 -22 54 -31 57 -105 107 -158 109 -41 1 -54 17 -54 69
0 20 -5 37 -11 37 -5 0 -7 5 -4 10 3 6 3 15 0 21 -4 6 -8 31 -10 57 -2 26 -9
61 -16 77 -7 17 -14 39 -16 50 -2 10 -9 22 -15 26 -6 4 -8 14 -5 23 4 9 -3 37
-13 62 -11 25 -20 52 -20 60 0 8 -14 45 -32 82 -17 37 -31 72 -31 79 0 7 -7
15 -15 18 -8 3 -11 12 -8 20 3 8 2 15 -3 15 -5 0 -14 14 -21 30 -7 17 -16 30
-21 30 -5 0 -9 6 -9 14 0 8 -6 21 -12 28 -7 8 -18 23 -24 33 -7 11 -19 19 -28
19 -13 -2 -14 1 -5 12 9 11 9 14 0 14 -7 0 -10 4 -6 9 3 5 -2 17 -11 25 -8 9
-13 16 -9 16 4 0 -7 12 -24 26 -17 14 -31 32 -31 40 0 7 -18 31 -41 53 -22 23
-38 45 -34 51 3 5 0 8 -7 5 -12 -5 -73 46 -174 147 -27 26 -46 38 -54 33 -8
-5 -11 -4 -7 2 4 6 -1 17 -11 26 -29 26 -125 88 -129 83 -2 -2 -15 7 -28 20
-13 13 -31 24 -39 24 -8 0 -16 5 -18 12 -2 6 -11 12 -19 13 -8 2 -34 12 -56
23 -31 14 -45 17 -54 8 -9 -8 -10 -7 -6 7 4 10 1 18 -6 19 -7 0 -16 2 -22 2
-5 1 -17 6 -25 11 -25 16 -83 34 -92 29 -4 -3 -8 -1 -8 4 0 5 -6 9 -12 9 -22
1 -43 8 -49 16 -3 4 -19 9 -35 11 -16 1 -28 7 -27 12 1 6 -35 11 -90 12 -93 1
-123 4 -131 13 -4 4 -101 3 -101 -1 0 -1 -8 -3 -17 -5 -10 -2 -18 1 -18 6 0 9
-61 9 -92 1z m637 -242 c3 -5 1 -10 -4 -10 -6 0 -11 5 -11 10 0 6 2 10 4 10 3
0 8 -4 11 -10z m254 -34 c8 -10 9 -16 1 -21 -6 -4 -9 -1 -8 7 2 7 -3 12 -10
10 -8 -1 -11 2 -7 8 8 13 10 13 24 -4z m-2091 -695 c3 -8 -1 -12 -9 -9 -7 2
-15 10 -17 17 -3 8 1 12 9 9 7 -2 15 -10 17 -17z m2787 -201 c3 -5 -1 -10 -10
-10 -9 0 -13 5 -10 10 3 6 8 10 10 10 2 0 7 -4 10 -10z m200 -410 c3 -5 2 -10
-4 -10 -5 0 -13 5 -16 10 -3 6 -2 10 4 10 5 0 13 -4 16 -10z m-458 -1015 c0
-8 -4 -12 -9 -9 -4 3 -8 9 -8 15 0 5 4 9 8 9 5 0 9 -7 9 -15z m-1997 -109 c0
-3 -4 -8 -10 -11 -5 -3 -10 -1 -10 4 0 6 5 11 10 11 6 0 10 -2 10 -4z m-1372
-108 c8 -10 19 -15 23 -12 5 3 6 -2 3 -10 -3 -9 -1 -16 4 -16 6 0 16 -16 23
-34 7 -19 16 -33 21 -30 4 3 8 -1 9 -8 1 -22 191 -162 204 -150 4 4 6 0 3 -8
-2 -8 -15 -20 -27 -26 -19 -10 -27 -7 -62 24 -21 19 -39 40 -39 47 0 27 -28
46 -85 56 -33 6 -68 11 -78 11 -10 -1 -15 4 -11 10 4 6 3 13 -2 17 -5 3 -14
15 -21 26 -6 11 -16 19 -21 18 -6 -2 -9 6 -7 17 2 11 -3 39 -11 62 -11 33 -12
47 -2 74 l12 33 24 -42 c14 -23 32 -50 40 -59z m3242 21 c0 -5 5 -7 10 -4 6 3
10 1 10 -4 0 -6 6 -11 13 -11 9 0 12 -13 9 -42 -2 -24 0 -38 5 -32 4 6 22 16
38 22 l30 12 -32 -6 c-28 -5 -33 -3 -33 15 0 25 18 37 26 18 3 -8 15 -17 26
-20 12 -4 18 -11 15 -19 -6 -17 53 -19 66 -3 5 5 6 1 2 -11 -5 -18 -2 -21 20
-16 16 3 25 0 25 -9 0 -7 3 -9 6 -6 4 4 1 13 -6 22 -8 9 -8 15 -2 15 6 0 13
-4 17 -9 3 -5 18 -12 33 -16 23 -5 27 -11 28 -40 0 -23 -4 -35 -13 -35 -7 0
-13 -7 -13 -15 0 -8 5 -15 10 -15 6 0 10 3 10 8 0 4 9 13 20 20 22 14 66 -1
55 -18 -3 -6 1 -7 9 -4 9 3 13 10 10 15 -3 5 -1 9 5 9 5 0 12 -6 14 -12 4 -9
8 -10 14 -2 4 6 16 10 26 8 9 -1 15 2 11 7 -3 5 0 9 5 9 6 0 11 -6 12 -12 0
-10 2 -10 6 0 7 18 43 15 43 -4 0 -8 5 -12 11 -8 8 4 9 -1 4 -16 -5 -16 -4
-21 6 -18 8 3 14 12 14 21 0 8 4 19 8 23 4 4 7 -2 7 -14 0 -12 5 -22 11 -22 6
0 9 7 6 15 -4 8 -1 17 5 21 7 4 8 3 4 -4 -5 -8 0 -12 13 -12 12 0 21 -5 21
-11 0 -5 5 -7 12 -3 7 4 8 3 4 -4 -4 -7 -16 -12 -27 -12 -13 0 -19 -7 -19 -21
0 -11 4 -17 10 -14 6 3 7 -1 4 -9 -3 -9 -11 -13 -18 -9 -6 4 -4 -1 3 -11 14
-17 15 -17 22 2 4 11 14 23 21 27 10 6 11 5 1 -6 -15 -15 -17 -33 -4 -25 5 4
7 -3 4 -14 -3 -11 -10 -17 -17 -13 -6 4 -4 -2 4 -12 13 -17 13 -18 0 -13 -11
4 -16 -1 -17 -13 -1 -11 2 -17 6 -14 5 2 7 -6 6 -18 -4 -32 -6 -34 -15 -12 -7
16 -9 17 -9 3 -1 -9 7 -22 17 -27 10 -6 12 -11 4 -11 -10 0 -10 -5 -2 -21 13
-23 -4 -54 -24 -42 -6 4 -3 -5 7 -20 21 -33 22 -32 -5 -58 -13 -12 -18 -19
-13 -16 6 3 12 -3 12 -14 2 -18 0 -19 -14 -7 -12 9 -15 10 -9 1 11 -19 -5 -16
-18 3 -11 14 -13 14 -27 -3 -13 -16 -13 -17 4 -4 11 9 17 10 17 2 0 -12 1 -12
-57 -16 -38 -2 -41 0 -33 16 7 12 7 20 0 24 -6 4 -10 3 -9 -2 3 -20 -2 -27
-12 -13 -8 12 -9 11 -5 -6 5 -17 2 -20 -23 -20 -21 0 -27 4 -24 14 5 11 7 11
15 0 8 -11 9 -11 6 0 -2 8 -7 13 -12 12 -5 -1 -13 4 -18 12 -8 10 -9 9 -4 -4
3 -12 1 -15 -9 -11 -8 3 -13 8 -11 12 3 4 1 13 -5 21 -13 22 -12 -16 2 -42 8
-15 8 -19 0 -14 -6 4 -11 1 -12 -6 0 -10 -2 -10 -6 0 -2 6 -9 10 -14 6 -12 -7
-40 21 -31 31 4 5 0 4 -8 -1 -22 -13 -52 -16 -45 -4 4 6 -1 7 -10 3 -12 -4
-13 -8 -5 -13 7 -4 9 -13 6 -19 -4 -6 -4 -11 1 -10 22 4 22 -3 -3 -26 -15 -14
-32 -25 -38 -25 -6 0 -5 4 3 9 9 6 10 11 2 15 -6 4 -11 2 -11 -4 0 -6 -4 -9
-9 -6 -5 3 -14 -1 -21 -10 -7 -8 -19 -13 -27 -10 -7 3 -13 0 -13 -7 0 -8 -4
-6 -10 3 -6 10 -10 11 -10 3 0 -7 -7 -13 -15 -13 -8 0 -15 5 -15 10 0 6 5 10
12 10 6 0 8 3 5 6 -4 4 -13 2 -20 -4 -7 -7 -31 -9 -55 -6 -26 3 -42 1 -42 -6
0 -5 11 -10 24 -10 14 0 28 -5 31 -11 4 -6 13 -8 21 -5 8 3 14 1 14 -4 0 -6
-5 -10 -10 -10 -7 0 -7 -6 0 -20 9 -16 8 -20 -5 -20 -8 0 -15 5 -15 12 0 7
-11 -3 -25 -22 -30 -41 -31 -43 -3 -35 16 6 20 4 15 -8 -4 -12 -2 -14 10 -10
8 3 19 0 24 -8 7 -11 9 -11 9 4 0 11 8 17 23 17 13 0 28 5 34 11 8 8 17 5 32
-10 20 -20 21 -48 1 -36 -10 6 -7 -21 4 -32 4 -4 6 -2 4 6 -2 7 3 16 11 19 9
3 11 0 7 -7 -4 -7 -4 -17 1 -24 5 -7 14 -24 21 -39 10 -24 9 -26 -6 -21 -10 3
-7 -2 7 -12 16 -12 19 -20 11 -25 -14 -9 3 -50 21 -50 6 0 8 -4 4 -9 -3 -6
-17 -6 -34 -1 -36 10 -41 6 -35 -27 4 -22 2 -25 -16 -20 -11 3 -20 0 -21 -6 0
-7 -4 -3 -9 8 -11 26 -12 37 -2 31 4 -2 9 5 9 17 2 17 0 19 -7 7 -7 -10 -10
-11 -10 -2 0 6 -4 12 -10 12 -5 0 -9 -6 -7 -12 1 -7 -4 -12 -10 -11 -7 2 -12
0 -12 -5 4 -23 -2 -42 -12 -37 -6 4 -8 13 -6 19 3 7 -1 13 -8 13 -8 0 -14 -3
-13 -6 2 -26 -3 -33 -16 -22 -11 9 -15 9 -19 -1 -4 -10 -6 -10 -6 0 -1 7 14
21 32 32 26 16 27 28 1 18 -3 -2 -11 10 -18 25 l-11 29 -25 -27 -25 -27 28 7
c30 8 33 0 16 -39 -14 -30 -33 -24 -24 7 4 15 3 18 -3 9 -5 -8 -13 -13 -18
-12 -5 1 -10 -4 -13 -11 -2 -7 1 -9 8 -5 6 4 9 2 6 -6 -3 -8 1 -22 10 -33 15
-20 15 -20 9 0 -5 15 2 11 30 -14 28 -28 39 -32 48 -23 10 10 10 17 0 32 -16
27 -15 29 9 23 15 -4 22 0 26 15 5 20 6 20 29 -7 30 -36 30 -36 -3 -39 -16 -1
-38 -13 -50 -27 -12 -14 -25 -20 -28 -15 -7 11 -65 -15 -65 -29 0 -12 -39 -21
-45 -10 -3 5 -1 19 5 31 11 22 11 22 -10 -1 -11 -13 -17 -27 -12 -30 5 -3 5
-20 0 -39 -7 -26 -11 -30 -22 -20 -9 8 -10 15 -4 19 6 4 7 12 3 19 -5 9 -4 11
3 6 7 -4 12 -2 12 3 0 6 -4 11 -10 11 -5 0 -7 7 -4 15 4 10 0 15 -15 15 -22 0
-29 16 -9 22 7 3 8 10 4 17 -7 11 -10 11 -17 0 -4 -8 -13 -14 -19 -14 -5 0
-10 -4 -9 -10 1 -5 4 -9 9 -8 4 1 17 -8 29 -21 19 -20 20 -25 8 -38 -11 -10
-12 -19 -5 -32 9 -16 8 -16 -11 -7 -12 7 -21 8 -21 2 0 -5 6 -11 13 -14 6 -3
-4 -4 -23 -3 -27 1 -34 5 -32 19 5 27 -15 20 -20 -8 -5 -23 2 -30 26 -26 5 1
4 -5 -4 -13 -7 -9 -25 -16 -41 -16 -15 0 -30 -4 -34 -10 -4 -6 -15 -6 -30 0
-18 7 -25 6 -25 -2 0 -8 -7 -6 -17 5 -13 13 -14 20 -5 29 9 9 12 9 12 -1 0 -7
5 -9 12 -4 17 10 88 11 88 1 0 -4 8 -8 18 -8 16 1 16 1 0 10 -9 6 -19 24 -23
40 -4 17 -11 30 -16 30 -14 0 -11 -28 4 -33 7 -2 8 -8 3 -13 -5 -5 -11 -4 -13
4 -3 6 -11 12 -18 12 -7 0 -16 -6 -18 -12 -3 -8 -6 -6 -6 5 -1 19 -21 24 -21
5 0 -8 -3 -9 -10 -2 -6 6 -8 19 -4 28 5 14 9 15 16 4 8 -11 9 -10 6 1 -2 8
-11 15 -20 17 -11 1 -15 -3 -11 -14 4 -13 3 -14 -5 -4 -13 19 8 62 31 62 21 0
23 18 2 26 -8 4 -12 10 -9 15 3 5 -2 9 -10 9 -21 0 -9 -30 13 -31 9 -1 5 -4
-9 -8 -14 -4 -26 -4 -28 1 -2 4 -11 8 -20 8 -15 0 -15 -2 -2 -10 13 -9 13 -10
0 -11 -10 0 -8 -3 5 -9 19 -8 19 -9 1 -9 -15 -1 -17 -4 -8 -13 9 -9 7 -15 -6
-25 -15 -12 -15 -13 8 -11 23 3 25 0 22 -35 -2 -21 2 -45 9 -53 18 -22 2 -30
-18 -8 -10 10 -24 20 -32 22 -12 3 -12 1 0 -15 8 -10 19 -21 24 -25 7 -5 6 -8
-1 -8 -5 0 -16 6 -23 12 -10 11 -11 9 -5 -6 5 -13 4 -17 -4 -12 -7 4 -12 2
-12 -5 0 -7 -3 -9 -7 -6 -3 4 -12 2 -20 -4 -9 -8 -13 -8 -13 -1 0 6 10 18 23
27 l22 16 -25 -4 c-14 -2 -26 -9 -26 -15 -1 -7 -2 -16 -3 -21 0 -5 -7 -8 -15
-7 -23 3 -45 26 -40 41 3 7 -4 18 -15 25 -15 8 -21 8 -21 0 0 -6 -4 -9 -9 -6
-12 8 -34 -21 -26 -34 3 -5 -1 -10 -9 -10 -9 0 -16 8 -17 18 0 10 -3 12 -6 5
-7 -19 -21 -16 -25 5 -3 12 -5 10 -9 -9 -5 -25 -4 -26 35 -24 55 3 76 13 69
33 -4 13 -2 12 10 -3 26 -33 11 -40 -83 -42 -79 -2 -90 0 -91 15 -1 14 -2 13
-6 -2 -5 -19 -6 -18 -20 5 -14 23 -14 23 -10 2 3 -13 1 -23 -4 -23 -5 0 -9 5
-9 12 0 6 -6 3 -14 -7 -12 -17 -17 -18 -41 -7 -21 10 -36 10 -61 2 -19 -6 -39
-8 -45 -4 -12 7 -84 17 -139 18 -34 1 -62 15 -54 27 2 4 -3 9 -11 13 -8 3 -15
0 -15 -6 0 -15 -152 -1 -162 15 -6 9 -11 8 -18 -3 -7 -11 -10 -11 -10 -2 0 7
-5 10 -11 7 -5 -4 -19 1 -30 11 -17 15 -22 16 -29 4 -8 -12 -10 -12 -15 2 -4
9 -15 18 -26 21 -10 3 -17 1 -13 -4 3 -5 -2 -9 -11 -9 -9 0 -13 4 -10 10 7 11
-23 60 -36 60 -5 0 -12 -14 -16 -31 l-6 -31 -13 23 c-11 20 -13 21 -14 5 0
-15 -3 -16 -15 -6 -17 14 -21 35 -5 25 6 -3 10 -2 10 2 0 5 -10 14 -21 22 -21
12 -22 12 -16 -21 l7 -33 -19 23 c-13 15 -21 18 -24 10 -3 -10 -7 -10 -20 0
-9 8 -20 11 -26 8 -5 -3 -11 -2 -13 2 -1 5 -21 15 -43 24 -25 10 -39 22 -39
32 2 19 -7 21 -24 4 -10 -10 -14 -8 -18 10 -4 12 -11 22 -18 22 -7 0 -8 3 0 8
6 4 4 13 -8 25 -22 21 -23 12 -4 -25 14 -26 5 -41 -9 -18 -3 6 -14 10 -24 10
-31 0 -54 35 -52 82 3 57 3 54 -2 123 -3 33 -8 69 -13 79 -6 16 -4 18 10 13
10 -4 15 -3 11 3 -3 6 3 10 14 10 13 0 21 6 21 18 0 14 -2 14 -9 3 -5 -8 -16
-11 -27 -7 -10 4 -21 1 -26 -6 -6 -9 -8 -1 -5 20 2 18 -1 35 -6 39 -5 3 -3 9
4 14 11 8 11 11 -4 20 -9 6 -14 15 -11 21 4 6 2 8 -4 4 -6 -3 -13 -2 -17 4 -3
5 1 10 10 10 9 0 14 4 10 10 -3 5 -13 7 -23 4 -10 -4 -13 -2 -7 3 14 12 17 40
5 48 -5 3 -7 0 -4 -8 3 -8 0 -18 -7 -23 -8 -4 -10 -3 -5 4 4 7 2 12 -4 12 -6
0 -8 5 -5 10 3 6 2 10 -3 10 -5 0 -17 21 -28 46 -14 35 -23 44 -37 40 -14 -3
-16 -2 -7 9 9 11 7 12 -11 8 -21 -6 -21 -6 -3 22 10 15 20 23 22 16 4 -12 52
-16 52 -3 0 12 -20 38 -20 27 0 -5 -6 -3 -13 5 -14 18 -37 24 -37 10 0 -5 6
-10 14 -10 8 0 17 -7 20 -16 5 -14 4 -15 -8 -5 -8 7 -17 8 -20 3 -8 -14 -51
-8 -48 7 1 7 -2 10 -7 6 -6 -3 -22 2 -37 11 -23 16 -24 18 -8 27 13 7 21 5 31
-9 7 -10 13 -15 13 -11 0 4 10 2 23 -4 19 -11 20 -10 9 3 -11 14 -6 16 43 16
30 0 58 -4 61 -9 8 -14 52 -11 58 4 5 10 7 10 12 0 3 -7 10 -13 15 -13 6 0 7
6 3 13 -6 10 -4 10 7 0 7 -7 20 -13 28 -13 14 0 14 1 1 10 -8 5 -10 10 -4 10
5 0 15 -5 21 -11 8 -8 17 -7 34 2 30 17 69 19 69 5 0 -6 5 -4 10 4 5 8 10 10
10 4 0 -5 -7 -19 -15 -30 -15 -18 -15 -18 -8 0 5 14 3 17 -6 12 -7 -5 -11 -17
-8 -27 3 -11 1 -16 -5 -13 -6 4 -8 -1 -3 -15 5 -17 2 -21 -14 -21 -14 0 -19
-5 -15 -15 9 -24 33 -18 40 10 3 14 10 25 15 25 5 0 9 7 9 16 0 14 2 15 17 3
15 -13 15 -12 5 8 -11 21 -7 53 7 53 10 0 33 -41 26 -48 -6 -6 68 -32 93 -32
6 0 12 5 12 12 0 6 -3 8 -7 5 -12 -12 -33 15 -33 42 0 24 4 27 40 28 22 1 38
-2 35 -7 -3 -5 -1 -11 4 -14 5 -4 13 3 16 15 5 15 10 18 15 9 9 -14 21 -15 29
-2 9 15 81 27 81 13 0 -6 7 -11 15 -11 8 0 12 6 9 13 -3 8 3 13 16 13 18 0 24
-8 21 -28 0 -5 4 -8 9 -8 6 0 10 6 9 13 -1 6 -1 19 0 27 1 13 2 13 11 0 7 -12
13 -13 28 -4 14 9 22 8 39 -6 22 -18 19 -32 -9 -43 -10 -3 -18 -10 -18 -15 0
-15 30 -36 38 -27 4 4 1 10 -5 12 -20 7 -15 24 5 21 11 -2 17 3 16 15 -1 9 4
17 12 17 8 0 14 -9 14 -19 0 -30 14 -32 27 -5 9 19 8 24 -3 24 -8 0 -14 4 -14
10 0 5 -6 7 -14 4 -8 -3 -23 -1 -33 5 -17 10 -17 10 0 11 10 0 15 5 12 10 -6
10 -1 11 70 15 34 1 80 12 180 42 11 3 17 2 13 -2 -4 -5 -2 -15 4 -23 10 -11
9 -16 -5 -23 -9 -6 -14 -17 -11 -27 5 -13 4 -14 -4 -3 -6 8 -8 19 -6 26 6 14
-26 16 -43 2 -18 -13 -16 -30 2 -23 19 7 67 -34 60 -52 -2 -7 0 -10 5 -7 12 7
13 -1 2 -23 -9 -19 22 -55 53 -60 16 -3 17 -1 7 11 -12 14 -7 47 8 47 4 0 12
10 18 23 8 17 11 18 11 5 1 -10 6 -18 12 -18 7 0 9 10 5 25 -5 20 -3 23 11 18
17 -7 17 -6 1 11 -16 16 -19 16 -34 2 -8 -9 -20 -13 -25 -10 -6 3 -10 0 -8 -7
4 -32 -1 -50 -13 -43 -7 5 -9 2 -5 -8 6 -17 -16 -19 -30 -3 -4 4 -2 5 5 1 17
-10 15 4 -7 41 l-20 31 22 14 c12 8 40 13 62 12 l40 -3 -34 10 c-27 8 -31 13
-20 20 8 5 9 9 4 9 -6 0 -16 -5 -23 -12 -9 -9 -15 -8 -26 7 -19 26 -10 38 17
24 12 -7 19 -8 15 -4 -10 10 17 35 38 35 9 0 23 -8 31 -17 13 -17 13 -16 7 6
-5 21 -4 22 9 10 8 -8 13 -17 10 -21 -2 -5 0 -8 6 -8 5 0 11 10 13 23 2 15 9
21 21 19 9 -2 17 1 17 6 0 5 12 12 26 15 18 3 24 1 20 -9 -3 -8 -1 -14 4 -14
6 0 10 10 11 23 0 21 1 21 9 2 5 -11 9 -14 9 -6 1 8 7 11 17 7 12 -5 15 -2 10
10 -5 14 -4 15 8 5 7 -6 16 -26 20 -43 3 -17 8 -29 11 -27 2 3 0 21 -5 42 -4
22 -4 39 1 43 5 3 8 0 7 -8 -5 -24 40 -21 52 4 10 21 10 21 -3 6 -8 -10 -20
-18 -26 -18 -6 0 -2 10 9 23 l21 22 20 -24 c13 -16 18 -34 15 -50 -3 -14 -3
-20 0 -13 3 6 12 12 19 12 15 0 26 23 17 36 -4 5 -13 9 -21 9 -8 0 -16 6 -19
13 -3 9 2 10 21 3 21 -8 26 -6 36 15 6 13 16 23 23 22 7 -2 12 3 10 10 -3 15
20 16 36 0 13 -13 30 -18 82 -23 19 -2 27 -2 17 1 -9 3 -14 10 -11 16 4 6 2 8
-4 4 -6 -3 -14 -1 -17 5 -4 5 -14 8 -24 5 -12 -5 -11 -2 3 9 14 10 22 12 27 4
5 -8 8 -8 13 0 4 6 12 9 17 6 5 -4 9 0 9 8 0 9 15 17 39 21 23 3 41 13 45 22
4 9 9 14 13 11 3 -4 15 0 26 8 14 10 25 11 39 4 15 -8 18 -6 18 10 0 27 17 36
37 19 15 -11 16 -11 10 5 -4 11 -3 16 3 12 11 -7 95 30 105 45 8 13 25 13 25
-1z m-1820 -38 c25 -11 38 -21 30 -21 -9 0 -11 -3 -5 -8 15 -10 35 -49 35 -67
0 -8 8 -15 18 -15 10 0 13 -3 7 -8 -6 -4 -12 -23 -13 -43 -4 -49 -7 -62 -13
-74 -4 -5 -9 -22 -13 -37 -3 -16 -11 -28 -17 -28 -6 0 -8 4 -4 9 3 6 -8 6 -27
0 -18 -6 -55 -10 -81 -10 -32 0 -46 -3 -41 -10 4 -8 1 -8 -12 -1 -17 8 -229 9
-264 1 -10 -3 -15 5 -15 24 -1 15 3 27 7 27 4 0 8 9 8 19 0 11 5 23 10 26 6 4
21 27 34 53 24 46 34 59 88 106 15 13 24 26 22 29 -5 5 33 20 46 20 3 -1 27 8
54 19 27 10 55 17 62 14 7 -3 16 0 20 6 5 7 8 7 13 0 4 -6 27 -20 51 -31z
m-1325 -41 c3 -6 -1 -7 -9 -4 -18 7 -21 14 -7 14 6 0 13 -4 16 -10z m1415 -24
c0 -3 -4 -8 -10 -11 -5 -3 -10 -1 -10 4 0 6 5 11 10 11 6 0 10 -2 10 -4z
m2110 -48 c0 -12 5 -15 16 -11 13 5 13 7 2 15 -8 5 -2 6 17 2 17 -3 36 -6 42
-6 10 -1 10 -5 2 -15 -10 -11 -15 -11 -27 -1 -9 7 -13 8 -10 3 4 -6 -4 -10
-20 -9 -15 1 -33 3 -40 3 -7 1 -10 6 -7 12 4 6 -2 13 -14 16 -12 3 -21 11 -21
18 0 11 6 11 30 2 18 -7 30 -19 30 -29z m-835 -28 c3 -5 1 -10 -4 -10 -6 0
-11 5 -11 10 0 6 2 10 4 10 3 0 8 -4 11 -10z m-2691 -46 c3 -8 2 -12 -4 -9 -6
3 -10 10 -10 16 0 14 7 11 14 -7z m4363 -89 c35 -6 83 -56 83 -86 0 -10 5 -19
11 -19 6 0 7 -5 2 -12 -4 -7 -8 -20 -10 -28 -9 -61 -18 -82 -53 -119 -41 -42
-49 -46 -126 -55 -42 -4 -45 -3 -132 56 -14 9 -33 15 -43 13 -10 -2 -16 1 -14
8 9 24 -37 57 -81 57 -14 0 -34 5 -44 10 -16 9 -18 8 -13 -6 5 -13 3 -15 -8
-8 -8 5 -18 9 -24 9 -10 0 -10 71 1 133 6 37 16 39 65 14 70 -36 130 -54 155
-48 18 5 24 12 20 22 -3 8 -2 13 3 10 11 -7 36 22 27 32 -9 9 89 29 124 26 14
-2 39 -5 57 -9z m-3943 -86 c-4 -7 0 -9 14 -5 11 4 47 -1 79 -10 56 -16 91
-34 64 -34 -7 0 -9 -4 -6 -10 3 -5 13 -10 22 -10 18 0 155 -60 163 -72 3 -4
22 -14 42 -22 20 -9 45 -31 57 -50 12 -19 27 -36 35 -39 7 -3 23 -27 35 -53
13 -26 34 -56 47 -66 13 -11 23 -22 22 -26 -3 -9 21 -79 37 -112 17 -35 55
-148 64 -191 12 -55 34 -99 54 -105 9 -3 37 -25 62 -50 25 -24 50 -44 55 -44
6 0 10 -4 10 -9 0 -11 50 -44 68 -44 7 0 27 -13 44 -29 16 -15 39 -28 49 -28
10 0 19 -4 19 -8 0 -11 51 -35 58 -27 3 2 11 0 19 -7 7 -6 16 -8 20 -4 3 3 14
0 22 -8 9 -8 27 -17 41 -20 14 -3 39 -9 55 -15 60 -19 181 -44 225 -46 25 -1
45 -4 45 -5 0 -2 16 -4 35 -5 19 -1 93 -8 164 -15 109 -11 129 -11 137 1 6 9
9 10 9 2 0 -15 280 -8 321 8 14 6 36 10 50 11 32 1 89 18 89 27 0 4 13 8 29 9
53 4 325 114 313 127 -4 5 -2 5 4 2 14 -8 74 11 74 24 0 5 9 9 20 9 10 0 29
10 42 23 13 12 36 31 52 42 63 44 136 107 146 125 6 11 18 17 29 15 11 -2 22
3 25 11 5 13 102 62 156 79 14 4 42 16 62 26 20 11 61 20 90 21 33 1 62 9 76
20 21 15 26 15 38 3 8 -7 24 -12 35 -10 12 2 28 -2 36 -10 8 -9 19 -13 24 -9
18 11 67 -7 100 -37 18 -16 36 -29 40 -29 43 0 199 -253 199 -324 0 -8 6 -13
13 -11 8 4 13 -9 14 -42 4 -85 3 -287 -1 -313 -7 -39 -36 -113 -52 -131 -7 -8
-19 -31 -26 -49 -6 -19 -27 -50 -45 -69 -18 -19 -33 -38 -33 -43 0 -25 -219
-218 -248 -218 -6 0 -17 -8 -24 -18 -7 -9 -26 -23 -41 -30 -15 -6 -30 -19 -33
-27 -4 -8 -12 -15 -20 -15 -8 0 -14 -4 -14 -10 0 -5 -7 -10 -15 -10 -12 0 -70
-34 -100 -58 -6 -5 -28 -11 -48 -15 -21 -3 -60 -20 -88 -36 -27 -17 -55 -31
-62 -31 -6 0 -30 -11 -52 -25 -22 -13 -51 -25 -64 -25 -27 0 -237 -57 -263
-71 -10 -5 -29 -9 -42 -9 -31 0 -57 -10 -51 -19 2 -4 -5 -7 -16 -6 -10 1 -47
-3 -82 -7 -34 -5 -78 -11 -97 -13 -226 -27 -260 -29 -350 -22 -30 3 -64 1 -75
-3 -13 -6 -15 -9 -5 -9 13 -1 13 -2 0 -11 -10 -6 -20 -4 -31 6 -18 16 -19 16
-129 14 -41 -1 -77 -1 -80 0 -3 1 -54 4 -115 6 -60 2 -148 6 -195 9 -47 3
-101 4 -120 4 -132 -5 -211 3 -245 22 -5 4 -34 7 -63 8 -29 1 -69 8 -90 16
-49 19 -128 39 -202 52 -19 3 -41 15 -48 25 -7 10 -22 18 -32 18 -11 0 -34 6
-52 14 -49 20 -131 48 -148 50 -8 1 -33 13 -55 27 -22 14 -56 34 -75 44 -50
26 -95 61 -165 130 -33 33 -74 71 -90 85 -82 70 -123 154 -92 188 27 29 5 46
-80 60 -43 7 -92 14 -109 16 -16 1 -36 6 -43 10 -6 4 -19 2 -27 -5 -12 -9 -19
-8 -37 7 -18 16 -19 16 -8 2 12 -16 11 -18 -3 -18 -9 0 -16 5 -16 11 0 6 -6 9
-14 6 -8 -3 -24 3 -37 14 -12 10 -30 19 -39 19 -10 0 -47 29 -83 64 l-65 64
34 18 c50 27 84 97 74 152 -9 49 -35 92 -56 92 -8 0 -26 8 -41 17 -20 13 -50
17 -137 17 -105 1 -111 2 -109 21 2 11 7 58 13 105 15 117 17 193 6 207 -5 9
-2 15 9 19 12 5 15 14 11 30 -4 15 1 39 13 62 10 20 27 62 37 92 9 30 30 78
45 105 15 28 25 55 22 61 -2 6 5 14 17 17 11 3 23 13 27 23 4 10 20 29 35 42
15 13 26 27 23 32 -3 4 2 11 10 14 9 3 20 18 26 33 7 19 13 24 18 15 8 -13 36
6 107 73 17 17 44 31 60 33 15 1 30 6 33 10 5 7 28 19 51 27 3 1 16 6 30 12
61 25 126 44 174 49 28 3 53 8 55 10 9 8 12 4 5 -7z m986 -69 c0 -5 -2 -10 -4
-10 -3 0 -8 5 -11 10 -3 6 -1 10 4 10 6 0 11 -4 11 -10z m30 -10 c0 -13 -6
-20 -17 -19 -11 0 -13 3 -5 6 6 2 12 11 12 19 0 8 2 14 5 14 3 0 5 -9 5 -20z
m1994 -161 c-6 -11 -24 -2 -24 11 0 5 7 7 15 4 8 -4 12 -10 9 -15z m-188 -174
c13 -11 15 -15 4 -13 -8 1 -25 -2 -38 -6 -30 -10 -37 -3 -17 18 20 20 26 20
51 1z m618 -120 c-4 -8 -8 -15 -10 -15 -2 0 -4 7 -4 15 0 8 4 15 10 15 5 0 7
-7 4 -15z m-694 -200 c0 -8 5 -15 11 -15 6 0 9 -5 7 -11 -5 -14 -23 -12 -23 4
0 6 -6 13 -12 13 -26 3 -28 5 -13 14 21 14 30 12 30 -5z m-1880 -125 c-18 -11
-24 -6 -16 16 5 14 9 15 19 5 9 -9 9 -14 -3 -21z m330 -65 c0 -7 -6 -15 -12
-18 -9 -3 -13 6 -14 24 -1 23 2 27 12 18 8 -6 14 -17 14 -24z m926 -72 c-10
-10 -19 5 -10 18 6 11 8 11 12 0 2 -7 1 -15 -2 -18z m-3176 -202 c0 -10 19 -9
38 2 7 5 20 6 30 3 9 -3 53 -8 96 -11 44 -3 84 -9 88 -13 5 -5 33 -5 64 1 30
5 62 6 72 1 9 -4 22 -6 29 -5 24 3 23 -19 -1 -31 -14 -6 -26 -15 -26 -20 0 -4
-11 -8 -25 -8 -14 0 -25 -4 -25 -9 0 -23 -240 -75 -406 -87 -103 -7 -119 -9
-132 -18 -7 -4 -15 -6 -16 -5 -7 8 -17 64 -11 58 3 -4 29 17 57 47 28 29 54
52 57 49 4 -2 18 2 32 9 26 13 34 16 49 16 5 0 7 7 4 15 -4 9 0 15 10 15 9 0
16 -4 16 -9z m5102 -53 c-5 -5 -16 -6 -26 -2 -13 5 -14 9 -5 20 9 11 15 12 26
3 8 -7 10 -16 5 -21z m-635 -800 c-3 -8 -6 -5 -6 6 -1 11 2 17 5 13 3 -3 4
-12 1 -19z m-1322 -288 c3 -5 1 -10 -4 -10 -6 0 -11 5 -11 10 0 6 2 10 4 10 3
0 8 -4 11 -10z m225 -80 c13 -8 13 -10 -2 -10 -9 0 -20 5 -23 10 -8 13 5 13
25 0z m282 -19 c3 8 8 11 12 8 4 -3 1 -19 -5 -35 -14 -36 -19 -107 -7 -115 5
-3 -2 -10 -15 -16 -22 -10 -26 -8 -40 22 -14 29 -14 35 -1 45 16 15 19 30 3
30 -5 0 -8 -4 -4 -9 3 -6 -3 -15 -14 -21 -28 -14 -34 3 -11 28 11 12 20 26 20
31 0 17 43 42 51 30 4 -8 8 -7 11 2z m-808 -26 c15 -23 21 -24 83 -20 92 5
253 6 278 1 11 -2 28 3 37 12 12 10 21 12 30 5 7 -6 41 -9 78 -6 85 6 88 6
135 -3 42 -7 55 -19 54 -44 0 -10 -2 -11 -6 -2 -7 18 -30 15 -64 -10 -23 -17
-32 -20 -38 -10 -6 10 -14 10 -37 2 -16 -6 -48 -15 -71 -19 -32 -6 -40 -5 -36
5 5 14 -19 44 -36 44 -6 0 -20 -13 -33 -30 -12 -16 -27 -30 -33 -30 -6 0 -18
-9 -28 -20 -9 -11 -23 -20 -31 -20 -13 0 -31 -27 -28 -42 1 -5 -2 -7 -7 -5
-13 3 -91 -65 -85 -74 3 -5 -1 -6 -9 -4 -7 3 -35 -14 -62 -39 l-49 -44 -23 48
c-31 65 -44 73 -113 72 -57 0 -59 0 -47 21 7 12 20 28 30 35 9 7 15 17 12 22
-3 5 2 30 11 56 8 25 13 55 11 65 -3 11 0 19 7 19 6 0 17 9 24 20 16 26 26 25
46 -5z m733 -7 c-3 -8 -6 -5 -6 6 -1 11 2 17 5 13 3 -3 4 -12 1 -19z m-944 -4
c37 -9 67 -20 67 -24 0 -4 -8 -17 -17 -29 -22 -25 -126 -43 -158 -26 -71 37
-82 66 -21 58 31 -4 34 -2 29 16 -7 26 8 27 100 5z m927 -14 c0 -5 -2 -10 -4
-10 -3 0 -8 5 -11 10 -3 6 -1 10 4 10 6 0 11 -4 11 -10z m-235 -89 c3 -5 1
-12 -5 -16 -5 -3 -10 1 -10 9 0 18 6 21 15 7z m329 -36 c-4 -8 -10 -12 -15 -9
-11 6 -2 24 11 24 5 0 7 -7 4 -15z m-904 -105 c0 -5 -4 -10 -10 -10 -5 0 -10
5 -10 10 0 6 5 10 10 10 6 0 10 -4 10 -10z m-8 -69 c10 -1 20 -12 24 -28 4
-16 12 -32 18 -36 8 -6 7 -10 -1 -14 -7 -2 -13 -17 -13 -33 0 -27 -47 -80 -71
-80 -6 0 -8 -4 -5 -8 2 -4 -4 -9 -15 -9 -10 -1 -24 7 -30 19 -7 12 -18 18 -29
15 -12 -3 -21 3 -28 18 -11 23 -6 65 8 65 4 0 12 12 19 28 27 59 38 70 73 67
18 -2 41 -3 50 -4z m-592 -111 c0 -5 -2 -10 -4 -10 -3 0 -8 5 -11 10 -3 6 -1
10 4 10 6 0 11 -4 11 -10z m130 -10 c0 -5 5 -10 11 -10 5 0 7 5 3 12 -4 6 -3
8 3 5 18 -11 22 -45 6 -51 -8 -4 -18 -4 -23 -1 -11 7 -19 55 -9 55 5 0 9 -4 9
-10z m77 -16 c-3 -3 -12 -4 -19 -1 -8 3 -5 6 6 6 11 1 17 -2 13 -5z m43 -31
c17 -12 25 -13 28 -5 2 8 11 3 23 -12 21 -26 17 -53 -7 -53 -9 0 -13 6 -10 14
3 8 2 12 -3 8 -5 -3 -11 -2 -14 2 -2 5 -2 1 1 -7 10 -34 6 -45 -15 -46 -13 -1
-23 5 -23 12 0 8 -3 13 -7 12 -11 -4 -57 43 -59 59 -1 7 1 11 6 8 4 -3 13 2
20 10 16 19 30 19 60 -2z m152 -66 c18 3 33 -2 47 -16 12 -12 21 -16 21 -9 0
6 3 8 7 5 3 -4 -2 -16 -13 -27 -29 -29 -45 -50 -39 -50 3 0 -7 -13 -21 -29
l-26 -30 -29 21 c-30 22 -38 47 -16 49 10 0 10 2 0 6 -27 10 -11 22 26 20 22
-1 39 0 38 3 -2 6 8 10 24 10 5 0 7 -5 3 -12 -4 -7 -3 -8 4 -4 6 4 8 14 5 23
-5 12 -3 14 8 8 12 -8 12 -6 0 8 -10 13 -18 14 -32 6 -10 -5 -19 -13 -19 -18
0 -4 -7 -8 -15 -8 -10 0 -14 6 -10 16 4 13 2 12 -9 -1 -17 -22 -40 -24 -32 -2
3 8 2 12 -4 9 -13 -8 -13 1 1 26 9 19 12 19 33 6 12 -8 34 -13 48 -10z m-93
-55 c-5 -2 -7 -8 -4 -12 9 -15 -12 -20 -24 -6 -9 10 -9 20 1 40 l12 27 12 -23
c7 -13 9 -24 3 -26z"/>
<path d="M5026 3912 c-3 -5 1 -9 9 -9 8 0 12 4 9 9 -3 4 -7 8 -9 8 -2 0 -6 -4
-9 -8z"/>
<path d="M4976 3891 c-15 -17 -15 -19 -1 -25 9 -3 18 1 22 10 5 13 7 13 14 2
5 -8 9 -9 9 -2 0 6 -6 17 -13 23 -11 8 -18 6 -31 -8z m17 -6 c-3 -9 -8 -14
-10 -11 -3 3 -2 9 2 15 9 16 15 13 8 -4z"/>
<path d="M5073 3903 c-15 -5 -17 -29 -4 -37 5 -3 11 5 13 19 3 14 5 25 4 24 0
0 -7 -3 -13 -6z"/>
<path d="M4892 3875 c12 -12 -10 -43 -33 -47 -19 -3 -19 -4 -4 -23 11 -14 15
-15 12 -4 -3 8 4 21 14 27 16 10 19 9 19 -3 0 -8 -6 -15 -12 -15 -7 0 -5 -5 5
-11 10 -6 30 -8 44 -4 23 5 25 4 14 -9 -10 -11 -10 -16 -2 -16 6 0 16 11 21
24 16 44 37 40 53 -9 7 -19 6 -19 -7 -2 -11 14 -15 15 -19 3 -12 -31 12 -72
28 -46 4 7 12 7 25 0 26 -14 27 -14 39 21 14 39 14 42 0 34 -6 -4 -9 -1 -7 7
2 7 -1 13 -6 13 -6 0 -10 -11 -10 -24 -1 -13 -7 -26 -15 -29 -10 -3 -12 3 -6
27 6 27 4 30 -12 24 -16 -6 -16 -5 -4 10 8 10 11 20 7 24 -3 3 -6 2 -6 -4 0
-5 -7 -10 -15 -10 -10 0 -14 6 -10 16 4 14 3 13 -8 -1 -12 -15 -14 -15 -25 0
-10 14 -11 14 -2 -5 7 -16 6 -22 -7 -27 -9 -4 -18 -4 -21 -1 -3 3 0 5 8 5 9 0
10 3 1 13 -6 8 -8 17 -4 20 3 4 2 7 -3 7 -6 0 -15 -5 -22 -12 -9 -9 -12 -8
-12 4 0 9 -6 20 -12 24 -7 4 -10 4 -6 -1z m48 -45 c0 -5 -7 -10 -16 -10 -8 0
-12 5 -9 10 3 6 10 10 16 10 5 0 9 -4 9 -10z m-7 -27 c-7 -2 -19 -2 -25 0 -7
3 -2 5 12 5 14 0 19 -2 13 -5z"/>
<path d="M5194 3834 c3 -8 6 -20 6 -25 0 -6 5 -7 10 -4 6 4 17 1 25 -5 12 -10
18 -10 30 0 8 7 15 18 14 24 0 7 -2 6 -6 -1 -2 -7 -9 -13 -14 -13 -6 0 -7 6
-3 13 4 6 4 9 -1 5 -4 -4 -13 -4 -19 1 -6 4 -19 11 -30 15 -14 5 -17 2 -12
-10z"/>
<path d="M4810 3808 c0 -19 -2 -20 -10 -8 -8 13 -10 12 -10 -3 0 -27 34 -17
38 11 2 12 -1 22 -7 22 -6 0 -11 -10 -11 -22z"/>
<path d="M5123 3823 c-14 -3 -20 -9 -16 -19 7 -19 16 -18 31 6 7 11 11 19 10
19 -2 -1 -13 -4 -25 -6z"/>
<path d="M5323 3823 c-18 -7 -16 -23 2 -23 8 0 15 7 15 15 0 8 -1 15 -2 14 -2
0 -9 -3 -15 -6z"/>
<path d="M5150 3769 c0 -18 2 -20 16 -8 13 10 17 10 25 -2 5 -8 9 -18 9 -23 0
-5 2 -7 5 -4 4 3 3 17 -1 32 -8 34 -54 38 -54 5z"/>
<path d="M5270 3778 c0 -14 16 -16 33 -3 17 12 16 13 -7 11 -15 0 -26 -4 -26
-8z"/>
<path d="M4730 3769 c0 -5 -6 -9 -14 -9 -8 0 -17 -4 -20 -9 -3 -5 5 -8 19 -7
14 0 25 4 25 8 0 3 8 8 18 10 14 3 13 5 -5 10 -13 3 -23 2 -23 -3z"/>
<path d="M4850 3772 c0 -6 -7 -9 -15 -6 -8 4 -15 1 -15 -6 0 -6 5 -8 10 -5 6
3 10 0 10 -7 0 -8 5 -6 11 5 6 10 8 21 5 24 -3 4 -6 1 -6 -5z"/>
<path d="M4890 3770 c20 -13 43 -13 35 0 -3 6 -16 10 -28 10 -18 0 -19 -2 -7
-10z"/>
<path d="M5240 3756 c0 -8 9 -18 21 -21 31 -10 33 0 4 19 -21 14 -25 14 -25 2z"/>
<path d="M4870 3750 c-13 -8 -13 -10 2 -10 9 0 20 5 23 10 8 13 -5 13 -25 0z"/>
<path d="M4930 3750 c-8 -5 -10 -10 -5 -10 6 0 17 5 25 10 8 5 11 10 5 10 -5
0 -17 -5 -25 -10z"/>
<path d="M5125 3740 c3 -5 8 -10 11 -10 2 0 4 5 4 10 0 6 -5 10 -11 10 -5 0
-7 -4 -4 -10z"/>
<path d="M5565 3740 c-3 -5 -13 -6 -22 -3 -15 6 -16 5 -3 -9 9 -10 17 -12 21
-6 4 6 12 8 18 4 7 -5 9 -1 5 8 -7 18 -11 20 -19 6z"/>
<path d="M4915 3721 c-6 -11 9 -23 19 -14 9 9 7 23 -3 23 -6 0 -12 -4 -16 -9z"/>
<path d="M4956 3714 c-9 -23 -7 -34 5 -34 6 0 9 6 6 14 -3 7 0 19 6 25 8 8 8
11 0 11 -6 0 -14 -7 -17 -16z"/>
<path d="M4600 3714 c0 -20 17 -31 55 -37 30 -5 35 -4 20 3 -16 8 -13 9 15 5
25 -4 31 -2 20 5 -12 8 -13 10 -1 10 8 0 12 2 10 4 -3 3 -24 0 -48 -6 -39 -10
-46 -9 -57 7 -8 10 -14 15 -14 9z"/>
<path d="M5253 3703 c8 -9 20 -12 26 -9 19 12 12 21 -15 23 -24 1 -25 -1 -11
-14z"/>
<path d="M4516 3693 c-6 -14 -5 -15 5 -6 7 7 10 15 7 18 -3 3 -9 -2 -12 -12z"/>
<path d="M5020 3701 c0 -5 -3 -18 -6 -28 -5 -16 -4 -16 10 1 18 23 20 36 6 36
-5 0 -10 -4 -10 -9z"/>
<path d="M5050 3700 c0 -5 5 -10 10 -10 6 0 10 5 10 10 0 6 -4 10 -10 10 -5 0
-10 -4 -10 -10z"/>
<path d="M4545 3690 c3 -5 8 -10 11 -10 2 0 4 5 4 10 0 6 -5 10 -11 10 -5 0
-7 -4 -4 -10z"/>
<path d="M4800 3690 c0 -5 7 -10 15 -10 8 0 15 5 15 10 0 6 -7 10 -15 10 -8 0
-15 -4 -15 -10z"/>
<path d="M4872 3685 c-11 -13 -9 -15 12 -15 18 0 24 4 20 15 -8 19 -15 18 -32
0z"/>
<path d="M5350 3691 c0 -5 -12 -12 -27 -16 -24 -6 -26 -8 -10 -16 21 -12 22
-29 1 -29 -9 0 -14 -6 -11 -12 2 -7 12 -12 21 -10 10 2 23 -2 31 -8 7 -6 16
-7 19 -2 3 5 -4 16 -15 25 -24 21 -25 38 -1 30 13 -5 14 -3 5 7 -6 7 -9 19 -6
26 3 8 2 14 -1 14 -3 0 -6 -4 -6 -9z"/>
<path d="M5526 3665 c6 -25 5 -28 -7 -18 -12 10 -15 5 -14 -34 0 -32 5 -48 15
-51 12 -4 13 -2 3 9 -20 20 -16 27 15 23 27 -4 27 -4 2 5 -23 8 -22 9 13 10
32 1 36 3 25 15 -7 8 -14 10 -16 5 -4 -11 -32 -12 -32 -1 0 4 4 12 9 18 6 5 4
17 -5 29 -14 19 -15 18 -8 -10z"/>
<path d="M5200 3667 c-34 -10 -34 -10 -10 -17 14 -4 31 -2 38 3 15 12 16 3 1
-21 -12 -19 13 -92 31 -92 7 0 7 7 0 20 -6 11 -8 20 -4 20 3 0 1 7 -6 15 -11
13 -10 20 0 41 8 13 19 23 25 20 7 -2 12 1 12 7 0 15 -43 17 -87 4z"/>
<path d="M5572 3673 c-6 -2 -10 -9 -6 -14 8 -14 21 -11 28 6 6 15 1 17 -22 8z"/>
<path d="M4520 3664 c0 -6 7 -26 16 -43 13 -26 14 -38 5 -57 -6 -14 -16 -22
-21 -19 -7 4 -7 12 0 25 11 20 4 50 -11 50 -5 0 -9 -7 -9 -15 0 -8 6 -15 13
-15 8 0 9 -2 1 -8 -7 -4 -14 -16 -16 -27 -2 -11 -9 -19 -14 -18 -6 1 -11 -5
-11 -13 0 -10 6 -13 16 -8 9 3 36 8 60 10 46 4 70 14 33 14 -17 0 -22 6 -22
24 0 14 5 28 10 31 16 10 12 25 -5 19 -9 -4 -15 0 -15 8 0 17 -29 58 -30 42z"/>
<path d="M5410 3662 c0 -5 7 -15 15 -22 21 -17 19 -26 -7 -35 -20 -6 -20 -8
-5 -12 9 -2 17 -9 17 -14 0 -5 11 -9 24 -9 20 0 23 4 19 28 -3 19 -2 23 5 14
7 -11 10 -11 15 2 4 9 2 16 -3 16 -6 0 -10 7 -10 15 0 8 -6 15 -12 15 -7 0
-23 3 -35 6 -13 4 -23 2 -23 -4z"/>
<path d="M5605 3662 c-2 -2 -1 -11 2 -20 5 -11 3 -13 -8 -7 -12 7 -12 6 -1 -7
11 -14 10 -18 -5 -27 -17 -10 -17 -11 2 -12 11 -1 26 -2 33 -2 6 1 12 -3 12
-8 0 -5 7 -9 15 -9 10 0 5 10 -15 28 -22 19 -27 31 -21 41 8 13 12 13 28 0 16
-12 17 -12 6 2 -7 9 -11 18 -8 20 2 3 -5 5 -16 5 -11 0 -22 -2 -24 -4z m20
-62 c3 -5 1 -10 -4 -10 -6 0 -11 5 -11 10 0 6 2 10 4 10 3 0 8 -4 11 -10z"/>
<path d="M4650 3646 c0 -17 14 -29 23 -20 8 8 -3 34 -14 34 -5 0 -9 -6 -9 -14z"/>
<path d="M4730 3650 c-12 -8 -11 -10 8 -10 12 0 22 5 22 10 0 13 -11 13 -30 0z"/>
<path d="M4805 3650 c-16 -7 -17 -9 -3 -9 9 -1 20 4 23 9 7 11 7 11 -20 0z"/>
<path d="M4987 3646 c-7 -16 17 -40 33 -34 7 2 4 12 -8 26 -16 18 -21 19 -25
8z"/>
<path d="M5070 3640 c0 -5 7 -10 15 -10 8 0 15 -7 15 -16 0 -8 5 -12 10 -9 6
3 10 1 10 -5 0 -7 6 -5 15 4 21 20 19 22 -16 35 -39 14 -49 14 -49 1z"/>
<path d="M4306 3618 c3 -4 9 -8 15 -8 5 0 9 4 9 8 0 5 -7 9 -15 9 -8 0 -12 -4
-9 -9z"/>
<path d="M4736 3615 c-11 -8 -16 -18 -13 -22 4 -4 13 -1 19 5 15 15 38 16 38
2 0 -5 -6 -10 -14 -10 -8 0 -16 -7 -20 -15 -7 -20 4 -18 32 4 21 18 32 48 13
36 -5 -3 -12 -1 -16 5 -8 13 -16 12 -39 -5z"/>
<path d="M5190 3620 c0 -5 5 -10 10 -10 6 0 10 5 10 10 0 6 -4 10 -10 10 -5 0
-10 -4 -10 -10z"/>
<path d="M5265 3620 c3 -5 8 -10 11 -10 2 0 4 5 4 10 0 6 -5 10 -11 10 -5 0
-7 -4 -4 -10z"/>
<path d="M5637 3619 c7 -7 15 -10 18 -7 3 3 -2 9 -12 12 -14 6 -15 5 -6 -5z"/>
<path d="M4693 3585 c0 -20 4 -34 9 -33 5 2 9 7 9 11 -1 4 -1 18 -1 32 0 14
-4 25 -8 25 -5 0 -9 -16 -9 -35z"/>
<path d="M4816 3611 c-4 -5 -1 -11 5 -13 7 -2 4 -10 -7 -18 -14 -12 -16 -12
-9 -1 5 10 4 12 -3 7 -21 -13 -14 -38 10 -34 17 2 23 10 25 30 2 28 -11 46
-21 29z"/>
<path d="M4200 3601 c0 -6 4 -12 8 -15 5 -3 9 1 9 9 0 8 -4 15 -9 15 -4 0 -8
-4 -8 -9z"/>
<path d="M4278 3593 c7 -3 16 -2 19 1 4 3 -2 6 -13 5 -11 0 -14 -3 -6 -6z"/>
<path d="M4420 3592 c0 -7 -4 -11 -8 -8 -5 3 -9 -1 -9 -9 0 -8 3 -15 7 -15 3
0 6 -9 6 -20 0 -11 -5 -20 -10 -20 -5 0 -7 -2 -4 -5 3 -3 16 -1 29 4 17 7 19
10 7 10 -20 1 -22 5 -9 30 6 10 6 23 0 32 -6 10 -9 11 -9 1z"/>
<path d="M4890 3586 c-9 -12 -7 -19 11 -37 17 -17 23 -19 30 -8 13 21 11 29
-7 29 -8 0 -13 4 -9 9 9 16 -12 22 -25 7z"/>
<path d="M4975 3590 c3 -5 11 -10 16 -10 6 0 7 5 4 10 -3 6 -11 10 -16 10 -6
0 -7 -4 -4 -10z"/>
<path d="M4233 3561 c-2 -23 2 -31 15 -32 10 0 12 -3 5 -6 -7 -2 -13 -10 -13
-15 0 -6 3 -8 7 -5 3 4 11 0 17 -7 9 -12 14 -11 31 7 11 11 15 17 8 13 -10 -6
-33 17 -58 59 -8 13 -10 11 -12 -14z"/>
<path d="M4614 3560 c0 -16 3 -30 8 -30 4 0 8 14 8 30 0 17 -4 30 -8 30 -5 0
-8 -13 -8 -30z"/>
<path d="M5290 3576 c0 -8 5 -18 10 -21 6 -3 10 1 10 9 0 8 -4 18 -10 21 -5 3
-10 -1 -10 -9z"/>
<path d="M4457 3569 c7 -7 15 -10 18 -7 3 3 -2 9 -12 12 -14 6 -15 5 -6 -5z"/>
<path d="M4646 3565 c-3 -8 -2 -15 3 -15 5 0 14 7 21 15 10 12 10 15 -3 15 -8
0 -17 -7 -21 -15z"/>
<path d="M5203 3565 c-16 -18 -17 -42 -1 -51 6 -4 8 -3 4 4 -3 5 -2 12 4 14
12 4 23 48 12 48 -4 -1 -13 -7 -19 -15z"/>
<path d="M5557 3566 c5 -14 3 -17 -7 -11 -9 5 -11 4 -6 -4 4 -6 11 -9 16 -6 4
3 13 -1 19 -9 13 -16 4 -49 -11 -40 -6 4 -6 9 2 14 9 5 9 9 1 14 -6 4 -12 2
-12 -3 -3 -26 -4 -30 -11 -37 -5 -4 -8 -12 -8 -18 0 -6 7 -3 14 7 8 10 17 18
20 18 19 -2 23 1 22 17 0 10 -11 31 -24 47 -12 17 -19 22 -15 11z"/>
<path d="M5096 3554 c-8 -22 -6 -23 22 -13 13 5 20 13 17 19 -10 15 -32 12
-39 -6z"/>
<path d="M3893 3553 c5 -8 -5 -13 -30 -16 -32 -3 -30 -4 14 -5 30 -1 55 3 59
10 4 7 3 8 -5 4 -6 -4 -19 -2 -28 6 -11 8 -14 8 -10 1z"/>
<path d="M4842 3549 c2 -6 8 -10 13 -10 5 0 11 4 13 10 2 6 -4 11 -13 11 -9 0
-15 -5 -13 -11z"/>
<path d="M4175 3540 c-3 -5 1 -10 9 -10 9 0 16 5 16 10 0 6 -4 10 -9 10 -6 0
-13 -4 -16 -10z"/>
<path d="M5006 3534 c-9 -24 -7 -44 4 -44 6 0 10 8 10 18 0 10 5 23 12 30 9 9
8 12 -4 12 -9 0 -19 -7 -22 -16z"/>
<path d="M5455 3539 c-10 -15 1 -22 24 -14 12 3 19 11 16 16 -8 12 -32 11 -40
-2z"/>
<path d="M4650 3528 c0 -4 5 -8 11 -8 6 0 18 -8 27 -17 16 -15 16 -16 0 -11
-9 4 -19 4 -22 0 -12 -11 -45 -9 -50 5 -10 26 -25 12 -24 -22 1 -36 14 -47 24
-20 4 8 13 15 21 15 8 0 12 -4 8 -9 -3 -5 -1 -12 5 -16 5 -3 10 1 10 9 0 9 5
16 10 16 6 0 10 -9 10 -20 0 -11 -6 -20 -14 -20 -8 0 -16 -7 -20 -15 -6 -17 9
-21 20 -4 3 6 24 9 44 7 29 -3 36 0 29 9 -6 6 -17 9 -25 6 -9 -3 -14 2 -14 16
0 12 6 21 15 21 18 0 19 8 3 41 -9 19 -20 26 -40 26 -15 0 -28 -4 -28 -9z"/>
<path d="M3689 3506 c-28 -26 -76 -46 -65 -27 9 13 -4 14 -23 2 -11 -7 -12
-13 -3 -23 9 -11 9 -17 0 -26 -19 -19 -45 -14 -53 11 -4 14 -8 17 -12 9 -9
-22 5 -42 29 -43 22 0 22 -1 3 -9 -18 -8 -17 -9 7 -9 20 -1 26 3 22 13 -3 9 4
20 18 27 13 7 28 19 34 27 12 16 39 7 29 -9 -4 -5 1 -9 11 -9 13 0 14 3 4 15
-10 12 -10 15 0 15 7 0 10 7 7 15 -4 8 -2 17 3 20 4 3 10 -1 13 -7 3 -7 4 -3
4 10 -1 12 -1 22 -2 22 0 0 -12 -11 -26 -24z m-64 -54 c-3 -3 -11 0 -18 7 -9
10 -8 11 6 5 10 -3 15 -9 12 -12z"/>
<path d="M4790 3501 c0 -18 -5 -41 -11 -53 -13 -25 -9 -29 20 -21 16 4 20 10
15 22 -3 9 -7 28 -9 44 -3 39 -15 46 -15 8z"/>
<path d="M5140 3519 c0 -5 5 -7 10 -4 6 3 10 8 10 11 0 2 -4 4 -10 4 -5 0 -10
-5 -10 -11z"/>
<path d="M5260 3526 c0 -2 7 -6 15 -10 8 -3 15 -1 15 4 0 6 -7 10 -15 10 -8 0
-15 -2 -15 -4z"/>
<path d="M5412 3518 c-16 -16 -15 -28 2 -28 7 0 16 9 19 20 6 23 -3 26 -21 8z"/>
<path d="M5510 3514 c0 -8 5 -12 10 -9 6 4 8 11 5 16 -9 14 -15 11 -15 -7z"/>
<path d="M5534 3508 c-4 -13 -14 -28 -22 -34 -12 -9 -12 -15 -2 -34 9 -17 14
-19 20 -10 5 7 6 19 3 26 -3 7 -1 19 3 26 10 15 16 48 10 48 -3 0 -8 -10 -12
-22z"/>
<path d="M4870 3510 c-9 -6 -11 -10 -3 -10 7 0 10 -7 6 -16 -5 -14 -8 -12 -19
7 -7 13 -13 18 -14 11 0 -7 -5 -10 -11 -6 -8 4 -8 0 0 -15 9 -15 9 -26 1 -42
-14 -24 7 -90 21 -68 4 7 5 18 2 26 -9 24 28 93 49 93 17 0 18 2 4 15 -17 18
-17 18 -36 5z m-20 -70 c-6 -11 -13 -20 -16 -20 -2 0 0 9 6 19 5 11 7 28 4 38
-5 17 -5 17 6 1 8 -13 8 -23 0 -38z"/>
<path d="M3555 3500 c3 -5 8 -10 11 -10 2 0 4 5 4 10 0 6 -5 10 -11 10 -5 0
-7 -4 -4 -10z"/>
<path d="M4428 3488 c-1 -13 -2 -32 -3 -43 -2 -28 13 -45 39 -44 11 0 16 3 11
5 -6 2 -9 21 -8 42 l4 37 -15 -30 c-13 -28 -14 -28 -15 -7 -1 13 4 32 9 43 8
15 7 19 -5 19 -8 0 -16 -10 -17 -22z"/>
<path d="M4955 3499 c-4 -6 -5 -12 -2 -15 2 -3 7 2 10 11 7 17 1 20 -8 4z"/>
<path d="M5218 3503 c-14 -3 -15 -7 -5 -18 12 -13 37 -3 37 16 0 9 -4 10 -32
2z"/>
<path d="M4393 3441 c1 -33 5 -54 9 -47 9 15 5 106 -4 106 -4 0 -7 -27 -5 -59z"/>
<path d="M5065 3490 c3 -5 8 -10 11 -10 2 0 4 5 4 10 0 6 -5 10 -11 10 -5 0
-7 -4 -4 -10z"/>
<path d="M5124 3480 c0 -11 4 -20 8 -20 4 0 8 9 8 20 0 11 -4 20 -8 20 -4 0
-8 -9 -8 -20z"/>
<path d="M5168 3476 c-4 -18 1 -27 19 -35 33 -15 43 -14 43 5 0 14 -3 14 -15
4 -13 -11 -16 -8 -21 19 -8 37 -20 40 -26 7z"/>
<path d="M5448 3489 c-10 -5 -18 -17 -18 -24 0 -23 16 -17 28 10 6 14 11 25 9
25 -1 0 -10 -5 -19 -11z"/>
<path d="M3471 3464 c-15 -34 -14 -36 9 -24 18 10 19 8 14 -20 -4 -18 -2 -30
4 -30 14 0 10 89 -4 94 -6 2 -17 -7 -23 -20z"/>
<path d="M3930 3480 c0 -13 28 -25 38 -16 3 4 0 11 -8 16 -20 13 -30 12 -30 0z"/>
<path d="M4001 3474 c0 -11 3 -14 6 -6 3 7 2 16 -1 19 -3 4 -6 -2 -5 -13z"/>
<path d="M2810 3476 c0 -2 7 -9 15 -16 13 -11 14 -10 9 4 -5 14 -24 23 -24 12z"/>
<path d="M3390 3466 c0 -8 4 -17 9 -20 5 -4 7 3 4 14 -6 23 -13 26 -13 6z"/>
<path d="M4284 3454 c-4 -14 -1 -35 5 -47 10 -19 10 -18 5 11 -3 20 -1 32 5
32 6 0 11 -7 11 -17 0 -9 3 -14 6 -10 9 9 -5 57 -16 57 -5 0 -13 -12 -16 -26z"/>
<path d="M4360 3448 c0 -23 3 -29 9 -19 8 12 4 51 -5 51 -2 0 -4 -15 -4 -32z"/>
<path d="M5268 3473 c-19 -5 -25 -33 -7 -33 14 0 41 28 32 33 -5 2 -16 2 -25
0z"/>
<path d="M5382 3464 c4 -21 22 -23 26 -1 2 10 -3 17 -13 17 -10 0 -15 -6 -13
-16z"/>
<path d="M5620 3473 c0 -15 18 -35 23 -27 3 5 -1 15 -9 22 -8 7 -14 9 -14 5z"/>
<path d="M3830 3460 c0 -5 7 -7 15 -4 8 4 15 8 15 10 0 2 -7 4 -15 4 -8 0 -15
-4 -15 -10z"/>
<path d="M5573 3463 c-15 -5 -17 -23 -4 -23 5 0 11 7 15 15 3 8 4 15 3 14 -1
0 -8 -3 -14 -6z"/>
<path d="M3157 3453 c-9 -2 -15 -9 -12 -14 4 -5 -6 -9 -21 -9 -15 0 -24 -3
-21 -6 3 -4 2 -15 -3 -25 -7 -11 -6 -26 0 -41 9 -20 10 -20 7 -2 -6 31 11 54
40 54 18 0 24 4 19 15 -3 8 -1 15 3 15 5 0 12 -6 14 -12 3 -7 6 -3 6 10 1 22
-1 23 -32 15z"/>
<path d="M3871 3455 c1 -19 18 -51 18 -35 0 8 -4 22 -9 30 -5 8 -9 11 -9 5z"/>
<path d="M4970 3451 l-25 -7 24 -7 c26 -6 41 -2 41 14 0 10 -4 10 -40 0z"/>
<path d="M5060 3445 c0 -8 5 -15 10 -15 6 0 10 7 10 15 0 8 -4 15 -10 15 -5 0
-10 -7 -10 -15z"/>
<path d="M2991 3441 c-11 -7 -9 -10 8 -16 13 -4 25 -4 28 -1 4 3 -2 6 -13 7
-15 1 -13 3 6 9 21 7 21 8 5 9 -11 0 -26 -3 -34 -8z"/>
<path d="M4196 3435 c-3 -8 -1 -15 4 -15 6 0 10 7 10 15 0 8 -2 15 -4 15 -2 0
-6 -7 -10 -15z"/>
<path d="M4481 3434 c0 -11 3 -14 6 -6 3 7 2 16 -1 19 -3 4 -6 -2 -5 -13z"/>
<path d="M4551 3434 c0 -11 3 -14 6 -6 3 7 2 16 -1 19 -3 4 -6 -2 -5 -13z"/>
<path d="M5315 3439 c-4 -6 2 -13 13 -16 13 -3 18 -11 15 -22 -4 -15 2 -18 34
-19 21 0 44 -1 52 -3 7 -2 16 2 19 10 3 9 0 11 -8 6 -8 -5 -19 1 -30 16 -15
19 -21 21 -33 10 -13 -10 -17 -9 -27 8 -12 23 -25 27 -35 10z"/>
<path d="M3076 3414 c3 -16 1 -23 -6 -19 -6 4 -7 -1 -3 -11 5 -14 8 -13 18 7
13 23 10 49 -5 49 -5 0 -7 -12 -4 -26z"/>
<path d="M5114 3415 c-31 -29 -44 -32 -44 -10 0 8 -7 15 -15 15 -8 0 -15 -9
-15 -20 0 -12 -7 -20 -17 -20 -14 0 -15 -2 -4 -12 11 -10 14 -10 18 0 3 6 17
12 33 12 15 0 33 7 40 15 7 8 21 15 31 15 11 0 19 7 19 15 0 22 -15 18 -46
-10z"/>
<path d="M3810 3425 c0 -2 10 -10 23 -16 20 -11 21 -11 8 4 -13 16 -31 23 -31
12z"/>
<path d="M4234 3415 c3 -10 -1 -18 -12 -22 -20 -8 -32 -23 -32 -40 0 -23 20
-14 30 13 6 14 14 22 20 19 6 -4 3 -16 -7 -32 -14 -21 -15 -25 -3 -21 23 7 41
50 29 65 -6 7 -8 17 -4 23 3 5 -1 10 -10 10 -11 0 -15 -5 -11 -15z"/>
<path d="M4598 3423 c7 -3 16 -2 19 1 4 3 -2 6 -13 5 -11 0 -14 -3 -6 -6z"/>
<path d="M5250 3416 c0 -17 14 -29 23 -20 8 8 -3 34 -14 34 -5 0 -9 -6 -9 -14z"/>
<path d="M3460 3404 c0 -8 5 -12 10 -9 6 3 10 10 10 16 0 5 -4 9 -10 9 -5 0
-10 -7 -10 -16z"/>
<path d="M4880 3405 c0 -8 5 -15 10 -15 6 0 10 7 10 15 0 8 -4 15 -10 15 -5 0
-10 -7 -10 -15z"/>
<path d="M5636 3408 c3 -10 2 -18 -3 -18 -12 0 -14 -38 -2 -46 5 -3 9 -2 8 3
-3 20 2 34 11 28 15 -9 12 9 -5 31 -13 16 -14 16 -9 2z"/>
<path d="M3277 3397 c-3 -9 1 -21 9 -27 11 -10 14 -10 14 1 0 8 -4 20 -9 27
-7 11 -9 11 -14 -1z"/>
<path d="M3696 3398 c3 -5 10 -6 15 -3 13 9 11 12 -6 12 -8 0 -12 -4 -9 -9z"/>
<path d="M4365 3400 c3 -5 8 -10 11 -10 2 0 4 5 4 10 0 6 -5 10 -11 10 -5 0
-7 -4 -4 -10z"/>
<path d="M4540 3394 c0 -8 5 -12 10 -9 6 3 10 1 10 -4 0 -6 -4 -11 -9 -11 -6
0 -9 -9 -8 -19 0 -11 5 -17 9 -15 4 3 8 1 8 -5 0 -5 3 -17 7 -27 4 -12 3 -15
-5 -10 -7 4 -12 1 -12 -7 0 -8 7 -17 15 -21 9 -3 15 0 15 9 0 26 18 16 25 -14
4 -18 14 -31 27 -34 16 -5 19 -11 15 -29 -5 -19 -2 -24 13 -25 13 -1 17 3 13
13 -3 9 1 14 11 14 9 0 21 12 27 27 7 20 12 24 18 14 6 -9 11 -10 15 -2 4 6 4
16 1 21 -11 17 -30 11 -40 -12 -12 -28 -36 -30 -50 -3 -5 11 -18 19 -27 17
-12 -2 -17 5 -20 30 -2 22 -8 32 -17 30 -8 -2 -11 3 -8 13 4 9 1 15 -9 15 -8
0 -12 5 -9 10 8 13 -4 50 -16 50 -5 0 -9 -7 -9 -16z"/>
<path d="M5180 3400 c0 -5 9 -10 20 -10 11 0 20 5 20 10 0 6 -9 10 -20 10 -11
0 -20 -4 -20 -10z"/>
<path d="M5528 3403 c6 -2 10 -9 6 -14 -3 -5 2 -9 10 -9 10 0 13 6 10 15 -4 8
-14 15 -23 14 -10 0 -11 -2 -3 -6z"/>
<path d="M2930 3390 c0 -5 7 -7 15 -4 8 4 15 8 15 10 0 2 -7 4 -15 4 -8 0 -15
-4 -15 -10z"/>
<path d="M4743 3388 c-3 -7 -7 -23 -8 -36 -1 -21 3 -23 29 -18 34 7 46 17 29
23 -7 3 -13 11 -13 18 0 17 -28 27 -37 13z"/>
<path d="M5134 3376 c-12 -50 -10 -91 6 -91 8 0 15 -5 15 -12 0 -6 4 -15 9
-20 5 -4 6 -3 3 3 -4 7 0 17 8 24 8 7 13 15 11 19 -3 4 -1 13 4 21 7 11 9 8 8
-10 -1 -14 -6 -32 -12 -40 -6 -8 1 -5 15 8 14 12 28 20 30 17 3 -3 4 8 1 23
-2 18 2 35 13 45 14 14 14 17 1 17 -8 0 -18 -9 -21 -20 -3 -11 -13 -20 -20
-20 -8 0 -18 -6 -22 -14 -7 -12 -11 -12 -28 1 -15 12 -16 14 -3 10 9 -3 22 0
28 8 9 11 7 12 -11 8 -19 -5 -21 -3 -17 15 4 12 2 24 -3 27 -4 3 -11 -6 -15
-19z m39 -90 c-3 -4 -9 -3 -13 4 -5 8 -13 9 -21 4 -12 -7 -12 -5 -1 9 11 13
17 14 27 4 7 -7 11 -16 8 -21z"/>
<path d="M3222 3366 c-12 -27 -7 -36 20 -36 18 0 18 1 3 16 -12 12 -13 19 -5
24 7 5 8 10 3 13 -6 4 -15 -4 -21 -17z"/>
<path d="M3382 3373 c4 -24 23 -27 25 -3 1 12 -4 20 -13 20 -9 0 -14 -7 -12
-17z"/>
<path d="M3440 3381 c0 -6 0 -14 1 -17 0 -4 -5 -11 -13 -15 -10 -7 -9 -9 3 -9
18 0 33 37 18 46 -5 3 -9 0 -9 -5z"/>
<path d="M3633 3375 c-16 -18 -17 -42 -1 -51 6 -4 8 -3 5 3 -4 6 0 16 7 22 9
8 17 8 20 2 3 -5 0 -11 -6 -14 -7 -2 -10 -7 -7 -11 4 -4 14 0 22 9 9 9 19 15
22 15 4 -1 10 1 13 5 4 4 0 5 -8 3 -8 -1 -14 4 -15 12 0 20 -37 24 -52 5z"/>
<path d="M3784 3379 c-3 -6 0 -16 6 -24 10 -12 9 -15 -4 -15 -11 0 -14 -5 -10
-12 4 -6 3 -8 -4 -5 -5 4 -8 17 -6 30 2 12 2 16 -2 10 -3 -7 -10 -13 -15 -13
-6 0 -7 6 -3 13 6 8 3 8 -9 -2 -13 -10 -14 -18 -6 -32 5 -10 14 -19 19 -19 6
0 10 -7 10 -15 0 -11 5 -12 26 -5 14 6 41 10 60 10 24 0 34 4 34 16 0 9 -9 18
-20 21 -12 3 -20 14 -20 27 0 15 -7 21 -25 22 -14 1 -28 -2 -31 -7z m46 -35
c0 -14 -4 -23 -10 -19 -5 3 -10 15 -10 26 0 10 5 19 10 19 6 0 10 -12 10 -26z"/>
<path d="M3985 3380 c-11 -5 -15 -9 -8 -9 6 -1 18 -4 26 -7 8 -3 17 2 20 10 7
18 -7 20 -38 6z"/>
<path d="M4155 3371 c4 -12 2 -21 -4 -21 -16 0 -14 -17 3 -23 16 -6 20 49 4
59 -6 4 -8 -1 -3 -15z"/>
<path d="M4496 3374 c-3 -9 -6 -24 -6 -35 0 -10 -4 -19 -9 -19 -5 0 -9 -15 -8
-32 1 -18 6 -31 12 -28 5 3 8 17 6 32 -2 19 2 27 11 25 7 -2 10 -2 6 0 -14 8
-8 23 10 24 9 0 12 3 6 5 -7 3 -10 14 -7 24 6 24 -12 27 -21 4z"/>
<path d="M4650 3380 c0 -7 -8 -23 -17 -34 -10 -12 -14 -18 -9 -14 16 13 35
-15 24 -36 -8 -16 -7 -18 6 -13 12 5 16 1 16 -15 0 -17 3 -19 11 -11 13 13 -5
71 -25 86 -7 4 -6 10 4 17 12 7 12 12 2 22 -9 9 -12 9 -12 -2z"/>
<path d="M4933 3365 c-18 -16 -23 -24 -13 -25 18 0 30 8 49 33 20 26 -3 21
-36 -8z"/>
<path d="M5092 3372 c-13 -2 -21 -9 -19 -15 5 -15 19 -18 36 -8 20 13 10 27
-17 23z"/>
<path d="M4070 3355 c0 -8 4 -15 10 -15 5 0 7 7 4 15 -4 8 -8 15 -10 15 -2 0
-4 -7 -4 -15z"/>
<path d="M5330 3360 c0 -5 7 -10 15 -10 8 0 15 5 15 10 0 6 -7 10 -15 10 -8 0
-15 -4 -15 -10z"/>
<path d="M2993 3353 c-7 -2 -13 -16 -13 -30 0 -15 3 -23 7 -20 3 4 13 1 21 -6
13 -10 14 -9 5 7 -6 10 -8 27 -6 37 6 20 5 20 -14 12z"/>
<path d="M4865 3346 c-12 -13 -7 -56 6 -56 5 0 9 -7 9 -15 0 -8 8 -15 19 -15
22 0 46 25 32 34 -5 4 -12 2 -16 -4 -3 -5 -10 -10 -16 -10 -14 0 -11 28 4 33
8 3 6 10 -8 24 -15 14 -24 17 -30 9z"/>
<path d="M3584 3342 c3 -5 0 -13 -6 -15 -9 -4 -10 -6 -1 -6 17 -1 25 16 12 25
-7 4 -9 3 -5 -4z"/>
<path d="M3975 3340 c-8 -12 2 -30 17 -30 5 0 8 6 5 14 -3 8 -1 17 6 20 7 2 5
5 -5 5 -9 1 -20 -3 -23 -9z"/>
<path d="M4990 3346 c0 -2 8 -10 18 -17 15 -13 16 -12 3 4 -13 16 -21 21 -21
13z"/>
<path d="M3327 3323 c3 -7 14 -13 24 -13 10 0 19 -4 19 -10 0 -5 -7 -7 -15 -4
-15 6 -45 -17 -45 -34 0 -6 -5 -12 -12 -14 -6 -2 -8 -10 -4 -16 5 -9 14 -7 34
7 15 10 32 20 37 21 6 1 9 6 7 12 -1 5 6 7 15 4 15 -5 18 0 19 27 0 31 -1 32
-42 32 -29 0 -40 -4 -37 -12z"/>
<path d="M4258 3304 c3 -28 0 -39 -17 -50 -22 -16 -29 -44 -11 -44 6 0 10 10
10 23 l0 22 18 -22 c12 -16 21 -20 32 -13 12 8 12 10 -3 16 -22 8 -12 51 17
77 12 10 16 16 9 13 -6 -4 -14 -2 -18 4 -3 5 -14 10 -24 10 -14 0 -16 -7 -13
-36z"/>
<path d="M4807 3320 c-3 -13 0 -20 9 -20 8 0 14 -9 14 -20 0 -11 5 -20 10 -20
13 0 13 10 -1 49 -13 36 -24 40 -32 11z"/>
<path d="M4935 3330 c-3 -5 1 -10 9 -10 9 0 16 5 16 10 0 6 -4 10 -9 10 -6 0
-13 -4 -16 -10z"/>
<path d="M3063 3320 c2 -8 9 -14 15 -13 6 2 14 -6 17 -17 8 -24 25 -26 25 -3
0 9 -3 13 -7 9 -4 -3 -13 4 -20 16 -8 15 -12 18 -13 8 0 -13 -1 -13 -11 0 -9
13 -10 13 -6 0z"/>
<path d="M3280 3320 c0 -5 5 -10 11 -10 5 0 7 5 4 10 -3 6 -8 10 -11 10 -2 0
-4 -4 -4 -10z"/>
<path d="M3520 3323 c0 -15 19 -37 26 -31 3 4 -1 14 -10 23 -9 9 -16 13 -16 8z"/>
<path d="M4190 3320 c0 -5 5 -10 11 -10 5 0 7 5 4 10 -3 6 -8 10 -11 10 -2 0
-4 -4 -4 -10z"/>
<path d="M3936 3311 c-3 -4 -19 -11 -34 -14 -17 -4 -31 -14 -34 -25 -5 -16
-14 -19 -59 -19 -32 1 -54 -4 -57 -11 -2 -7 -10 -12 -18 -12 -8 0 -14 -4 -14
-10 0 -5 -7 -10 -15 -10 -8 0 -15 -4 -15 -10 0 -13 17 -13 25 0 4 6 11 8 16 4
6 -3 19 3 29 14 21 23 56 19 78 -7 11 -14 12 -13 6 8 -5 20 -3 23 11 18 9 -4
19 -7 21 -7 3 0 2 -4 -1 -10 -3 -5 -1 -10 4 -10 6 0 11 13 11 29 0 32 18 51
30 31 5 -8 9 -7 13 4 9 23 30 20 24 -4 -6 -23 -3 -24 24 -10 25 14 24 30 -1
30 -11 0 -20 7 -20 15 0 16 -16 20 -24 6z"/>
<path d="M4730 3306 c0 -8 7 -16 15 -20 13 -4 14 -2 5 14 -13 23 -20 26 -20 6z"/>
<path d="M3420 3300 c0 -5 5 -10 11 -10 5 0 7 5 4 10 -3 6 -8 10 -11 10 -2 0
-4 -4 -4 -10z"/>
<path d="M3478 3303 c7 -3 16 -2 19 1 4 3 -2 6 -13 5 -11 0 -14 -3 -6 -6z"/>
<path d="M3703 3302 c-13 -2 -23 -10 -23 -18 0 -19 36 -18 44 2 8 20 7 21 -21
16z"/>
<path d="M5066 3301 c-4 -7 -5 -15 -2 -18 9 -9 19 4 14 18 -4 11 -6 11 -12 0z"/>
<path d="M3032 3273 c1 -17 6 -29 11 -26 4 3 14 -3 21 -13 10 -13 15 -14 21
-4 6 9 4 11 -5 5 -10 -6 -12 -4 -7 8 3 10 2 17 -4 17 -6 0 -7 5 -3 12 4 6 3 8
-4 4 -6 -3 -15 2 -21 11 -9 15 -10 13 -9 -14z"/>
<path d="M3270 3290 c-8 -5 -11 -12 -7 -16 4 -4 15 0 24 9 18 18 8 23 -17 7z"/>
<path d="M4406 3291 c-3 -5 1 -14 9 -21 13 -10 15 -9 15 9 0 21 -14 28 -24 12z"/>
<path d="M4330 3276 c0 -9 8 -12 25 -8 28 5 24 22 -6 22 -10 0 -19 -6 -19 -14z"/>
<path d="M3610 3274 c0 -2 9 -13 21 -25 13 -13 18 -27 14 -42 -5 -19 -4 -20 5
-5 8 13 8 23 0 38 -6 11 -9 24 -6 28 2 4 -4 9 -15 9 -10 1 -19 0 -19 -3z"/>
<path d="M3555 3250 c20 -23 29 -21 19 4 -3 9 -13 16 -22 16 -13 0 -12 -3 3
-20z"/>
<path d="M4163 3254 c-8 -21 1 -26 22 -11 16 13 16 14 1 20 -10 4 -19 1 -23
-9z"/>
<path d="M3400 3250 c0 -6 7 -10 15 -10 8 0 15 2 15 4 0 2 -7 6 -15 10 -8 3
-15 1 -15 -4z"/>
<path d="M4778 3253 c7 -3 16 -2 19 1 4 3 -2 6 -13 5 -11 0 -14 -3 -6 -6z"/>
<path d="M4938 3240 c-14 -13 -15 -17 -3 -17 8 0 17 7 20 15 8 21 3 22 -17 2z"/>
<path d="M3235 3240 c4 -6 11 -8 16 -5 14 9 11 15 -7 15 -8 0 -12 -5 -9 -10z"/>
<path d="M3455 3229 c2 -22 21 -39 45 -39 11 1 10 4 -5 16 -11 8 -20 20 -20
26 0 6 -5 13 -11 15 -6 2 -10 -6 -9 -18z"/>
<path d="M4415 3239 c-11 -17 1 -21 15 -4 8 9 8 15 2 15 -6 0 -14 -5 -17 -11z"/>
<path d="M4535 3241 c-3 -5 -1 -12 4 -15 13 -8 42 4 35 15 -7 12 -31 12 -39 0z"/>
<path d="M3367 3229 c-18 -11 -24 -39 -7 -39 6 0 10 6 10 14 0 8 8 16 18 18 9
2 13 6 7 10 -6 3 -18 2 -28 -3z"/>
<path d="M3675 3230 c-3 -5 -1 -10 4 -10 6 0 11 5 11 10 0 6 -2 10 -4 10 -3 0
-8 -4 -11 -10z"/>
<path d="M4386 3231 c-4 -7 -5 -15 -2 -18 9 -9 19 4 14 18 -4 11 -6 11 -12 0z"/>
<path d="M4996 3224 c-8 -20 1 -34 21 -34 13 0 13 -3 3 -15 -7 -8 -11 -15 -9
-16 34 -7 37 -6 35 17 0 13 -4 24 -8 24 -4 0 -10 9 -13 20 -8 24 -21 26 -29 4z"/>
<path d="M3200 3215 c7 -8 16 -15 21 -15 5 0 6 7 3 15 -4 8 -13 15 -21 15 -13
0 -13 -3 -3 -15z"/>
<path d="M4026 3215 c-10 -8 -22 -12 -27 -10 -4 3 -10 1 -14 -5 -6 -10 6 -14
40 -10 15 1 17 -1 8 -12 -6 -7 -13 -31 -15 -53 -3 -39 -2 -40 26 -37 21 3 26
0 20 -9 -7 -11 -12 -69 -7 -69 2 0 14 10 28 22 28 24 33 43 9 34 -15 -6 -15
-3 1 20 15 23 15 28 3 35 -10 5 -13 21 -11 48 3 36 1 39 -20 33 -20 -5 -20 -4
-8 11 11 14 11 17 0 17 -8 0 -23 -7 -33 -15z m45 -47 c1 -7 1 -19 0 -26 -1 -8
3 -20 10 -28 9 -11 7 -14 -10 -14 -26 0 -36 20 -27 55 7 26 25 34 27 13z"/>
<path d="M4185 3221 c3 -5 1 -12 -4 -15 -14 -9 -10 -56 5 -56 10 0 14 13 14
40 0 22 -5 40 -11 40 -5 0 -8 -4 -4 -9z"/>
<path d="M3165 3210 c-4 -6 -2 -17 5 -24 6 -9 8 -26 4 -42 -7 -25 -8 -26 -15
-9 -5 13 -8 15 -8 5 -1 -23 15 -44 23 -31 4 6 12 9 17 6 5 -4 10 4 10 17 1 17
3 18 6 6 6 -24 23 -23 23 2 0 11 5 20 10 20 6 0 10 5 10 11 0 6 -8 8 -20 4
-25 -8 -63 12 -56 31 6 16 0 19 -9 4z"/>
<path d="M3395 3200 c-5 -9 53 -25 61 -17 3 3 -9 9 -25 15 -17 6 -33 7 -36 2z"/>
<path d="M3541 3201 c-20 -5 -22 -8 -9 -19 18 -15 48 -6 48 14 0 15 -3 15 -39
5z"/>
<path d="M4335 3180 c-7 -32 -1 -50 18 -50 7 0 18 -14 24 -30 6 -17 22 -34 35
-39 33 -12 35 -5 5 19 -14 12 -24 27 -21 34 3 7 -7 18 -22 25 -22 9 -25 17
-22 41 6 39 -8 39 -17 0z"/>
<path d="M4460 3205 c0 -2 5 -16 12 -30 11 -24 13 -25 18 -9 4 10 1 24 -6 31
-13 13 -24 17 -24 8z"/>
<path d="M4522 3199 c2 -7 10 -15 17 -17 8 -3 12 1 9 9 -2 7 -10 15 -17 17 -8
3 -12 -1 -9 -9z"/>
<path d="M3800 3190 c0 -5 4 -10 10 -10 5 0 7 -7 4 -15 -4 -8 -1 -15 5 -15 12
0 14 11 5 34 -7 18 -24 22 -24 6z"/>
<path d="M4110 3190 c0 -5 5 -10 10 -10 6 0 10 5 10 10 0 6 -4 10 -10 10 -5 0
-10 -4 -10 -10z"/>
<path d="M4881 3193 c-1 -7 -8 -10 -16 -7 -10 4 -15 0 -15 -14 0 -11 -3 -27
-6 -35 -4 -12 0 -14 16 -10 15 4 20 11 17 24 -3 10 0 20 6 22 5 1 7 10 4 18
-3 8 -6 9 -6 2z"/>
<path d="M3085 3180 c-3 -5 -1 -10 4 -10 6 0 11 5 11 10 0 6 -2 10 -4 10 -3 0
-8 -4 -11 -10z"/>
<path d="M4388 3183 c7 -3 16 -2 19 1 4 3 -2 6 -13 5 -11 0 -14 -3 -6 -6z"/>
<path d="M3110 3166 c0 -8 -10 -18 -22 -22 l-23 -7 25 -10 c14 -6 28 -9 33 -9
4 1 7 -3 7 -10 0 -6 3 -9 6 -6 8 9 -7 78 -17 78 -5 0 -9 -6 -9 -14z"/>
<path d="M3775 3170 c3 -5 8 -10 11 -10 2 0 4 5 4 10 0 6 -5 10 -11 10 -5 0
-7 -4 -4 -10z"/>
<path d="M4546 3144 c-10 -22 -21 -33 -23 -26 -7 20 -23 14 -23 -9 0 -18 4
-20 25 -15 29 7 29 6 12 -37 -14 -33 -12 -57 4 -57 5 0 9 13 9 29 0 25 3 28
21 24 19 -5 20 -4 7 18 -7 13 -20 29 -28 36 -13 10 -12 13 6 20 15 6 19 14 14
32 -5 22 -6 21 -24 -15z"/>
<path d="M4815 3170 c-3 -5 -1 -10 4 -10 6 0 11 5 11 10 0 6 -2 10 -4 10 -3 0
-8 -4 -11 -10z"/>
<path d="M3310 3156 c0 -19 -25 -27 -39 -13 -14 14 -23 4 -15 -17 3 -9 14 -16
23 -16 19 1 72 29 54 30 -7 0 -10 7 -7 15 4 8 1 15 -5 15 -6 0 -11 -6 -11 -14z"/>
<path d="M3576 3151 c10 -10 21 -17 23 -15 6 6 -20 34 -32 34 -6 0 -2 -8 9
-19z"/>
<path d="M3620 3158 c0 -4 7 -8 16 -8 11 0 14 -5 9 -17 -4 -13 -3 -15 5 -7 14
14 4 41 -15 41 -8 0 -15 -4 -15 -9z"/>
<path d="M4950 3160 c0 -5 7 -7 15 -4 8 4 15 8 15 10 0 2 -7 4 -15 4 -8 0 -15
-4 -15 -10z"/>
<path d="M3495 3150 c4 -6 11 -8 16 -5 14 9 11 15 -7 15 -8 0 -12 -5 -9 -10z"/>
<path d="M3896 3151 c-7 -11 18 -33 27 -24 4 3 7 12 7 20 0 15 -26 18 -34 4z"/>
<path d="M4110 3145 c0 -9 5 -15 11 -13 6 2 11 8 11 13 0 5 -5 11 -11 13 -6 2
-11 -4 -11 -13z"/>
<path d="M4270 3150 c0 -5 7 -10 16 -10 8 0 12 5 9 10 -3 6 -10 10 -16 10 -5
0 -9 -4 -9 -10z"/>
<path d="M4617 3153 c-12 -11 -8 -31 8 -37 11 -4 15 1 15 19 0 24 -10 32 -23
18z"/>
<path d="M4692 3148 c-14 -14 -16 -48 -3 -48 9 0 25 49 18 56 -2 2 -9 -2 -15
-8z"/>
<path d="M3353 3129 c-2 -23 3 -25 10 -4 4 8 3 16 -1 19 -4 3 -9 -4 -9 -15z"/>
<path d="M3752 3143 c-6 -2 -10 -9 -7 -13 7 -11 35 -2 35 11 0 10 -8 10 -28 2z"/>
<path d="M3703 3129 c9 -6 15 -14 12 -19 -3 -4 2 -10 10 -14 18 -6 19 -1 5 25
-6 10 -18 19 -28 19 -16 -1 -16 -1 1 -11z"/>
<path d="M4432 3128 c-19 -19 -14 -28 16 -28 24 1 25 2 10 14 -10 7 -15 16
-11 19 3 4 4 7 2 7 -3 0 -10 -5 -17 -12z"/>
<path d="M3794 3116 c-8 -20 1 -31 24 -31 9 0 16 -5 15 -11 -2 -8 6 -10 20 -6
19 5 20 7 4 10 -13 3 -17 10 -14 23 3 11 1 16 -4 13 -6 -3 -16 0 -24 6 -12 10
-16 9 -21 -4z"/>
<path d="M4755 3120 c3 -5 10 -10 16 -10 5 0 9 5 9 10 0 6 -7 10 -16 10 -8 0
-12 -4 -9 -10z"/>
<path d="M3391 3102 c-8 -16 -7 -21 6 -26 9 -4 18 -4 21 -1 3 3 -1 5 -9 5 -12
0 -11 2 1 10 11 7 12 12 3 21 -8 8 -14 6 -22 -9z"/>
<path d="M3493 3113 c9 -2 23 -2 30 0 6 3 -1 5 -18 5 -16 0 -22 -2 -12 -5z"/>
<path d="M3549 3108 c-15 -10 -14 -13 1 -28 26 -26 67 -33 74 -14 9 24 7 31
-5 14 -8 -11 -12 -12 -16 -2 -2 6 -13 12 -24 12 -12 0 -16 5 -13 15 7 17 5 18
-17 3z"/>
<path d="M4120 3100 c0 -11 2 -20 5 -20 2 0 9 9 15 20 9 16 8 20 -5 20 -8 0
-15 -9 -15 -20z"/>
<path d="M4909 3118 c-10 -34 -7 -48 10 -48 14 0 17 6 13 25 -2 14 -8 25 -13
25 -5 0 -9 -1 -10 -2z"/>
<path d="M3295 3100 c-3 -6 1 -13 9 -16 9 -3 13 -10 10 -15 -3 -5 0 -9 5 -9
12 0 14 11 5 34 -7 18 -20 21 -29 6z"/>
<path d="M3880 3100 c0 -5 4 -10 9 -10 6 0 13 5 16 10 3 6 -1 10 -9 10 -9 0
-16 -4 -16 -10z"/>
<path d="M5005 3100 c3 -5 11 -10 16 -10 6 0 7 5 4 10 -3 6 -11 10 -16 10 -6
0 -7 -4 -4 -10z"/>
<path d="M3498 3093 c7 -3 16 -2 19 1 4 3 -2 6 -13 5 -11 0 -14 -3 -6 -6z"/>
<path d="M4190 3089 c0 -5 5 -7 10 -4 6 3 10 8 10 11 0 2 -4 4 -10 4 -5 0 -10
-5 -10 -11z"/>
<path d="M4257 3085 c-4 -8 -2 -17 3 -20 6 -4 10 -4 10 -1 0 2 3 11 6 20 3 9
2 16 -4 16 -5 0 -12 -7 -15 -15z"/>
<path d="M4631 3084 c0 -11 3 -14 6 -6 3 7 2 16 -1 19 -3 4 -6 -2 -5 -13z"/>
<path d="M3195 3070 c-6 -20 -24 -22 -38 -5 -5 6 -5 0 -2 -12 5 -17 2 -23 -10
-23 -10 0 -15 6 -12 13 3 8 -4 14 -16 15 -17 1 -19 -1 -7 -8 13 -9 13 -10 0
-10 -8 -1 -4 -6 9 -11 14 -5 30 -8 38 -5 7 3 19 -1 27 -10 10 -10 17 -11 22
-3 3 6 1 14 -5 18 -6 4 -9 15 -5 25 5 13 9 14 20 5 11 -9 14 -8 14 4 0 23 -28
29 -35 7z"/>
<path d="M3645 3052 c-9 -19 -14 -37 -11 -39 2 -2 7 5 11 16 3 12 12 21 20 21
7 0 15 5 17 11 4 11 20 -17 33 -56 6 -18 7 -19 16 -3 7 13 4 23 -11 38 -12 12
-19 28 -16 36 4 10 -2 13 -19 12 -16 -2 -28 -13 -40 -36z"/>
<path d="M3899 3061 c-8 -17 -20 -32 -29 -35 -8 -2 6 -4 32 -5 26 0 50 -5 53
-11 3 -5 10 -10 16 -10 5 0 9 5 9 10 0 6 -6 10 -14 10 -9 0 -12 7 -9 20 6 24
-4 26 -29 3 -16 -14 -18 -14 -18 0 0 8 6 17 13 20 9 3 9 8 1 17 -9 9 -15 4
-25 -19z"/>
<path d="M4316 3076 c7 -19 38 -22 32 -3 -3 6 -12 13 -21 15 -12 2 -15 -1 -11
-12z"/>
<path d="M4462 3078 c6 -18 28 -21 28 -4 0 9 -7 16 -16 16 -9 0 -14 -5 -12
-12z"/>
<path d="M3267 3073 c-8 -7 11 -33 24 -33 5 0 9 9 9 20 0 19 -20 27 -33 13z"/>
<path d="M3426 3061 c-11 -12 -26 -21 -35 -22 -10 0 -12 -2 -3 -6 6 -2 10 -9
6 -14 -3 -5 5 -9 16 -9 15 0 20 5 17 13 -4 10 2 13 21 10 19 -3 23 -2 14 5 -8
5 -13 12 -12 16 5 21 -8 25 -24 7z"/>
<path d="M4840 3070 c0 -6 7 -10 15 -10 8 0 15 2 15 4 0 2 -7 6 -15 10 -8 3
-15 1 -15 -4z"/>
<path d="M4880 3055 c0 -8 -6 -15 -14 -15 -18 0 -29 -31 -20 -55 4 -10 1 -21
-7 -26 -12 -7 -11 -11 3 -26 22 -21 25 -17 29 27 3 39 33 75 55 66 21 -8 17 3
-8 25 -28 22 -38 24 -38 4z"/>
<path d="M4950 3059 c0 -5 5 -7 10 -4 6 3 10 8 10 11 0 2 -4 4 -10 4 -5 0 -10
-5 -10 -11z"/>
<path d="M5007 3053 c3 -8 -3 -13 -18 -14 -13 0 -18 -3 -11 -6 6 -2 12 -13 12
-24 0 -12 5 -16 14 -13 9 4 16 -3 19 -18 3 -13 5 -6 4 15 -1 24 4 41 13 47 17
11 7 23 -19 25 -12 1 -17 -3 -14 -12z"/>
<path d="M3480 3050 c0 -5 4 -10 9 -10 6 0 13 5 16 10 3 6 -1 10 -9 10 -9 0
-16 -4 -16 -10z"/>
<path d="M4160 3050 c0 -5 4 -10 9 -10 6 0 13 5 16 10 3 6 -1 10 -9 10 -9 0
-16 -4 -16 -10z"/>
<path d="M4373 3043 c16 -19 16 -21 -11 -46 -16 -15 -32 -27 -36 -27 -4 0 -14
-7 -22 -15 -9 -8 -11 -15 -5 -15 5 0 12 4 15 9 3 5 15 7 26 4 11 -3 20 -1 20
4 0 6 11 26 24 45 l24 36 -26 12 c-26 11 -26 11 -9 -7z"/>
<path d="M4610 3046 c-16 -16 -12 -32 10 -32 11 0 20 3 20 7 0 4 2 14 5 22 7
16 -19 19 -35 3z"/>
<path d="M4684 3024 c-10 -13 -27 -24 -36 -24 -10 0 -18 -4 -18 -10 0 -18 36
-11 60 12 22 20 23 21 16 3 -5 -11 -11 -29 -14 -40 -2 -11 -9 -25 -14 -32 -5
-7 -5 -14 1 -17 6 -4 20 12 31 35 12 22 17 38 11 34 -6 -3 -11 -2 -11 3 0 14
28 35 38 29 13 -9 35 10 27 22 -5 9 -10 9 -22 0 -11 -10 -19 -10 -33 -1 -15 9
-21 7 -36 -14z"/>
<path d="M4805 3040 c-3 -5 -1 -10 4 -10 6 0 11 5 11 10 0 6 -2 10 -4 10 -3 0
-8 -4 -11 -10z"/>
<path d="M5076 3028 c5 -8 0 -9 -14 -6 -24 7 -27 -6 -12 -52 8 -24 9 -23 14
22 0 6 7 13 14 16 7 2 10 -2 6 -12 -3 -9 -3 -24 1 -33 5 -10 7 -29 6 -42 -2
-14 1 -21 8 -17 5 4 8 13 4 21 -3 8 0 15 6 15 6 0 11 -9 11 -19 0 -26 16 -35
24 -15 4 9 4 19 1 22 -3 3 -5 -1 -5 -8 0 -7 -2 -11 -5 -8 -9 8 6 38 16 32 10
-6 12 7 3 30 -5 14 -8 14 -27 1 -30 -21 -35 -19 -31 11 3 31 -4 54 -18 54 -5
0 -6 -5 -2 -12z m64 -68 c-8 -5 -19 -10 -25 -10 -5 0 -3 5 5 10 8 5 20 10 25
10 6 0 3 -5 -5 -10z"/>
<path d="M5116 3027 c3 -10 9 -15 12 -12 3 3 0 11 -7 18 -10 9 -11 8 -5 -6z"/>
<path d="M5169 3026 c10 -12 8 -13 -8 -9 -12 3 -21 1 -21 -6 0 -5 7 -8 15 -4
9 3 15 2 14 -3 -1 -5 -1 -20 1 -34 1 -23 2 -23 9 -5 5 12 4 23 -3 27 -6 5 7 6
29 4 22 -2 34 -2 27 1 -6 2 -9 10 -5 16 4 6 0 8 -10 4 -8 -3 -21 1 -27 9 -7 8
-17 14 -22 14 -6 0 -6 -6 1 -14z"/>
<path d="M3228 3023 c7 -3 16 -2 19 1 4 3 -2 6 -13 5 -11 0 -14 -3 -6 -6z"/>
<path d="M4110 3008 c-11 -12 -20 -26 -20 -30 0 -5 -5 -6 -12 -2 -7 4 -8 3 -4
-4 13 -22 46 -14 46 11 0 13 5 28 12 35 7 7 9 12 5 12 -3 0 -15 -10 -27 -22z"/>
<path d="M4188 3023 c7 -3 16 -2 19 1 4 3 -2 6 -13 5 -11 0 -14 -3 -6 -6z"/>
<path d="M4320 3015 c-22 -27 -5 -37 19 -11 19 20 21 26 9 26 -9 0 -21 -7 -28
-15z"/>
<path d="M3255 3010 c-4 -6 -16 -8 -27 -4 -15 5 -19 3 -13 -7 22 -38 28 -40
42 -13 13 26 12 46 -2 24z"/>
<path d="M3450 3004 c0 -8 5 -12 10 -9 6 3 10 10 10 16 0 5 -4 9 -10 9 -5 0
-10 -7 -10 -16z"/>
<path d="M3840 3010 c0 -5 5 -10 11 -10 5 0 7 5 4 10 -3 6 -8 10 -11 10 -2 0
-4 -4 -4 -10z"/>
<path d="M4003 3013 c4 -3 1 -13 -5 -22 -8 -10 -4 -9 10 3 26 23 27 26 5 26
-9 0 -13 -3 -10 -7z"/>
<path d="M4147 3013 c-15 -15 -7 -35 12 -30 13 3 18 0 15 -8 -9 -24 15 -26 27
-3 6 13 8 20 4 16 -5 -5 -14 1 -22 12 -15 21 -25 25 -36 13z"/>
<path d="M4800 3006 c0 -9 5 -16 10 -16 6 0 10 4 10 9 0 6 -4 13 -10 16 -5 3
-10 -1 -10 -9z"/>
<path d="M4956 2995 c7 -28 -10 -34 -24 -9 -7 12 -11 13 -17 4 -4 -6 -2 -17 4
-23 6 -6 11 -18 11 -27 0 -9 10 -26 23 -38 25 -24 46 -30 30 -9 -6 6 -10 36
-9 64 1 35 -3 54 -11 58 -10 3 -11 -3 -7 -20z"/>
<path d="M3690 2991 c0 -12 5 -21 10 -21 6 0 10 -13 10 -29 0 -17 -4 -33 -10
-36 -16 -10 -12 -20 20 -56 16 -19 30 -29 30 -23 0 6 -6 17 -14 23 -17 15 -10
92 10 104 24 14 16 30 -11 23 -18 -5 -25 -2 -25 8 0 8 -4 18 -10 21 -5 3 -10
-3 -10 -14z"/>
<path d="M3770 3002 c0 -4 5 -13 12 -20 16 -16 28 -15 28 2 0 8 -7 17 -16 20
-21 8 -24 8 -24 -2z"/>
<path d="M3890 3006 c0 -2 7 -6 15 -10 8 -3 15 -1 15 4 0 6 -7 10 -15 10 -8 0
-15 -2 -15 -4z"/>
<path d="M4273 2991 c1 -11 8 -21 15 -21 12 0 12 3 1 18 -7 9 -14 19 -16 21
-1 2 -1 -6 0 -18z"/>
<path d="M4415 3000 c3 -5 8 -10 11 -10 2 0 4 5 4 10 0 6 -5 10 -11 10 -5 0
-7 -4 -4 -10z"/>
<path d="M3087 2983 c3 -7 9 -10 14 -7 5 3 9 -3 9 -12 0 -10 3 -15 6 -11 10
10 -6 44 -20 44 -8 0 -12 -6 -9 -14z"/>
<path d="M3290 2993 c0 -5 7 -19 16 -31 12 -18 13 -26 4 -37 -7 -8 -10 -20 -8
-27 3 -7 12 1 22 20 9 17 12 32 6 32 -5 0 -10 6 -10 14 0 7 -7 19 -15 26 -8 7
-15 8 -15 3z"/>
<path d="M3650 2978 c0 -19 2 -20 10 -8 13 19 13 30 0 30 -5 0 -10 -10 -10
-22z"/>
<path d="M4240 2991 c0 -7 -4 -9 -10 -6 -6 4 -7 -1 -3 -11 6 -15 7 -15 15 1 6
9 7 19 4 22 -3 4 -6 1 -6 -6z"/>
<path d="M4445 2990 c3 -5 8 -10 11 -10 2 0 4 5 4 10 0 6 -5 10 -11 10 -5 0
-7 -4 -4 -10z"/>
<path d="M3270 2976 c0 -9 5 -16 10 -16 6 0 10 4 10 9 0 6 -4 13 -10 16 -5 3
-10 -1 -10 -9z"/>
<path d="M3363 2983 c-13 -2 -23 -8 -23 -13 0 -15 32 -21 47 -8 11 9 19 9 34
0 15 -10 19 -9 19 2 0 8 -7 17 -16 20 -16 6 -24 6 -61 -1z"/>
<path d="M3520 2974 c0 -8 5 -12 10 -9 6 4 8 11 5 16 -9 14 -15 11 -15 -7z"/>
<path d="M3875 2968 c-6 -16 -9 -18 -16 -7 -4 7 -12 10 -16 5 -4 -5 -2 -11 5
-13 7 -3 19 -11 27 -19 12 -12 12 -19 2 -34 -6 -11 -18 -20 -25 -20 -7 0 -11
-4 -7 -9 3 -5 1 -12 -5 -16 -5 -3 -10 -15 -10 -26 0 -11 4 -18 10 -14 5 3 7
12 3 20 -3 10 2 15 16 15 14 0 25 9 31 25 15 39 40 32 40 -11 0 -23 -4 -33
-11 -28 -7 4 -10 0 -7 -10 6 -31 22 -21 30 18 5 25 4 43 -3 52 -18 21 -3 30
43 25 l43 -4 -35 -14 -35 -13 35 5 c40 6 60 28 30 33 -11 2 -20 11 -20 20 -1
16 -1 16 -11 0 -7 -12 -19 -16 -41 -13 -18 2 -36 -1 -40 -8 -4 -6 -10 -8 -15
-4 -4 4 -2 16 4 25 7 13 7 21 -3 29 -10 10 -14 8 -19 -9z"/>
<path d="M4550 2975 c0 -9 -9 -15 -22 -15 -13 0 -30 -5 -38 -10 -11 -7 -6 -10
22 -10 36 0 64 -20 40 -28 -14 -4 -16 -32 -4 -32 5 0 17 9 26 19 14 15 15 24
7 39 -6 12 -8 28 -5 36 4 11 1 16 -10 16 -9 0 -16 -7 -16 -15z"/>
<path d="M3605 2970 c3 -5 10 -10 16 -10 5 0 9 5 9 10 0 6 -7 10 -16 10 -8 0
-12 -4 -9 -10z"/>
<path d="M4400 2970 c0 -5 5 -10 10 -10 6 0 10 5 10 10 0 6 -4 10 -10 10 -5 0
-10 -4 -10 -10z"/>
<path d="M4750 2973 c0 -4 9 -14 21 -21 18 -12 20 -11 17 5 -3 17 -38 32 -38
16z"/>
<path d="M5193 2954 l0 -24 18 21 c11 12 19 23 19 23 0 1 -8 2 -19 3 -13 1
-18 -5 -18 -23z"/>
<path d="M3925 2960 c3 -5 8 -10 11 -10 2 0 4 5 4 10 0 6 -5 10 -11 10 -5 0
-7 -4 -4 -10z"/>
<path d="M4610 2961 c0 -11 26 -22 34 -14 3 3 3 10 0 14 -7 12 -34 11 -34 0z"/>
<path d="M3480 2950 c0 -5 5 -10 11 -10 5 0 7 5 4 10 -3 6 -8 10 -11 10 -2 0
-4 -4 -4 -10z"/>
<path d="M3770 2946 c0 -8 5 -18 10 -21 6 -3 10 -15 10 -27 0 -14 5 -18 16
-14 9 3 18 6 20 6 2 0 4 9 4 20 0 11 -7 20 -15 20 -9 0 -18 7 -21 15 -8 19
-24 20 -24 1z"/>
<path d="M4980 2953 c0 -13 27 -43 40 -43 5 0 11 4 14 9 7 11 -19 33 -28 24
-4 -4 -11 -1 -16 7 -6 9 -10 10 -10 3z"/>
<path d="M3246 2933 c-6 -15 -8 -15 -16 -3 -9 13 -10 13 -9 0 1 -8 4 -25 7
-36 7 -20 8 -20 24 12 10 18 13 36 9 39 -5 3 -12 -3 -15 -12z"/>
<path d="M3560 2945 c0 -12 33 -55 41 -55 16 0 9 25 -11 43 -21 17 -30 21 -30
12z"/>
<path d="M3665 2940 c3 -5 8 -10 11 -10 2 0 4 5 4 10 0 6 -5 10 -11 10 -5 0
-7 -4 -4 -10z"/>
<path d="M4130 2933 c-8 -10 -16 -28 -18 -40 -3 -19 2 -23 25 -24 28 -1 28 -1
3 -8 -25 -7 -25 -7 -2 -13 20 -6 26 1 24 24 -1 3 5 12 13 18 8 7 15 20 15 29
-1 14 -2 14 -11 -1 -5 -10 -20 -17 -32 -17 -19 1 -19 2 -3 6 15 4 16 7 5 14
-10 6 -10 9 -1 9 6 0 12 5 12 10 0 15 -14 12 -30 -7z"/>
<path d="M4370 2940 c0 -5 5 -10 11 -10 5 0 7 5 4 10 -3 6 -8 10 -11 10 -2 0
-4 -4 -4 -10z"/>
<path d="M4440 2941 c0 -5 5 -13 10 -16 6 -3 10 -2 10 4 0 5 -4 13 -10 16 -5
3 -10 2 -10 -4z"/>
<path d="M4728 2943 c7 -3 16 -2 19 1 4 3 -2 6 -13 5 -11 0 -14 -3 -6 -6z"/>
<path d="M4880 2945 c1 -17 29 -49 37 -41 4 3 -3 16 -15 29 -12 12 -22 17 -22
12z"/>
<path d="M4060 2930 c0 -5 5 -10 11 -10 5 0 7 5 4 10 -3 6 -8 10 -11 10 -2 0
-4 -4 -4 -10z"/>
<path d="M4797 2934 c-4 -4 -7 -14 -7 -23 0 -11 3 -12 11 -4 6 6 10 16 7 23
-2 6 -7 8 -11 4z"/>
<path d="M3095 2921 c-3 -5 -1 -12 4 -15 5 -4 12 0 15 6 4 7 4 3 2 -9 -4 -20
0 -23 29 -23 19 0 36 4 40 9 7 12 -25 30 -42 24 -6 -2 -14 1 -18 6 -8 13 -22
14 -30 2z"/>
<path d="M5215 2920 c-3 -5 -1 -10 4 -10 6 0 11 5 11 10 0 6 -2 10 -4 10 -3 0
-8 -4 -11 -10z"/>
<path d="M4294 2907 c-8 -22 -5 -25 26 -30 27 -4 40 -27 16 -27 -9 0 -16 -5
-16 -11 0 -5 -4 -7 -10 -4 -6 4 -7 -1 -3 -11 4 -12 3 -15 -5 -10 -8 4 -12 0
-12 -12 0 -10 -7 -19 -15 -19 -8 0 -12 4 -9 9 7 11 -39 28 -50 18 -13 -12 4
-32 21 -25 13 4 14 3 3 -10 -11 -13 -10 -14 6 -8 17 6 17 5 5 -10 -12 -16 -12
-17 5 -11 10 4 27 14 36 21 9 8 21 12 26 9 10 -6 58 41 50 49 -3 3 -13 -1 -21
-10 -20 -19 -27 -19 -27 1 0 9 8 18 18 21 10 2 24 19 32 36 7 18 15 34 17 37
1 3 -11 5 -28 6 -21 1 -29 -3 -25 -12 8 -20 -11 -17 -23 4 -9 16 -10 16 -17
-1z"/>
<path d="M4465 2910 c-3 -5 -1 -10 4 -10 6 0 11 5 11 10 0 6 -2 10 -4 10 -3 0
-8 -4 -11 -10z"/>
<path d="M4750 2909 c0 -5 5 -7 10 -4 6 3 10 8 10 11 0 2 -4 4 -10 4 -5 0 -10
-5 -10 -11z"/>
<path d="M3430 2895 c9 -10 9 -15 1 -15 -6 0 -11 -5 -11 -11 0 -5 4 -8 9 -5 5
4 11 3 14 -1 2 -5 2 -2 1 5 -2 6 2 12 8 12 7 0 6 5 -2 15 -7 8 -17 15 -22 15
-6 0 -5 -7 2 -15z"/>
<path d="M3510 2900 c13 -8 13 -11 1 -19 -7 -5 -12 -14 -10 -20 3 -8 15 -3 34
13 17 14 28 26 25 27 -56 8 -64 7 -50 -1z"/>
<path d="M4060 2901 c0 -5 7 -11 15 -15 9 -3 15 0 15 9 0 8 -7 15 -15 15 -8 0
-15 -4 -15 -9z"/>
<path d="M4860 2900 c0 -5 5 -10 10 -10 6 0 10 5 10 10 0 6 -4 10 -10 10 -5 0
-10 -4 -10 -10z"/>
<path d="M4418 2888 c-2 -6 -2 -24 0 -40 4 -28 26 -38 35 -15 4 9 6 9 6 0 1
-9 8 -10 27 -3 34 13 37 13 30 -5 -4 -10 1 -15 14 -15 13 0 20 7 20 19 0 10 7
22 16 25 8 3 12 2 9 -4 -9 -15 4 -12 21 4 20 21 18 22 -21 18 -19 -2 -35 -9
-35 -14 0 -11 -59 -1 -77 14 -7 6 -13 4 -16 -4 -4 -9 -6 -7 -6 4 -1 21 -18 33
-23 16z"/>
<path d="M4010 2878 c0 -12 7 -18 23 -17 15 0 17 2 7 6 -8 3 -18 11 -22 17 -5
7 -8 4 -8 -6z"/>
<path d="M4228 2861 c3 -20 8 -28 18 -24 8 3 14 9 14 15 0 5 5 6 10 3 17 -11
11 7 -7 21 -29 21 -40 16 -35 -15z"/>
<path d="M4666 2875 c4 -8 8 -15 10 -15 2 0 4 7 4 15 0 8 -4 15 -10 15 -5 0
-7 -7 -4 -15z"/>
<path d="M4775 2880 c-3 -5 1 -10 9 -10 9 0 16 5 16 10 0 6 -4 10 -9 10 -6 0
-13 -4 -16 -10z"/>
<path d="M4830 2871 c0 -11 4 -22 9 -26 5 -3 12 -18 16 -34 3 -16 12 -32 20
-35 14 -5 11 17 -6 40 -7 9 -16 40 -18 67 -2 16 -21 5 -21 -12z"/>
<path d="M3260 2875 c0 -5 5 -17 10 -25 5 -8 10 -10 10 -5 0 6 -5 17 -10 25
-5 8 -10 11 -10 5z"/>
<path d="M3977 2860 c-3 -13 0 -20 10 -20 10 0 13 -6 8 -17 -4 -13 -3 -15 5
-7 7 7 8 19 1 37 -12 32 -17 34 -24 7z"/>
<path d="M4721 2850 c8 -21 17 -30 32 -29 22 0 22 0 0 9 -13 5 -23 14 -23 20
0 14 13 13 28 -2 7 -7 12 -8 12 -2 0 16 -22 34 -41 34 -16 0 -17 -4 -8 -30z"/>
<path d="M4388 2847 c-3 -15 -1 -30 4 -33 15 -10 18 0 9 32 l-8 29 -5 -28z"/>
<path d="M4924 2842 c-1 -9 -4 -26 -8 -37 -4 -11 0 -7 9 9 10 16 13 32 8 37
-5 5 -9 1 -9 -9z"/>
<path d="M3171 2845 c0 -5 4 -17 9 -25 5 -8 10 -10 10 -3 0 6 9 9 22 5 14 -3
19 -2 14 7 -4 6 -12 9 -17 6 -5 -4 -9 0 -9 7 0 10 -2 10 -9 -1 -7 -11 -9 -11
-14 0 -3 8 -6 10 -6 4z"/>
<path d="M3480 2840 c0 -5 5 -10 11 -10 5 0 7 5 4 10 -3 6 -8 10 -11 10 -2 0
-4 -4 -4 -10z"/>
<path d="M3510 2841 c0 -6 5 -13 10 -16 6 -3 10 1 10 9 0 9 -4 16 -10 16 -5 0
-10 -4 -10 -9z"/>
<path d="M4025 2840 c8 -12 -16 -50 -32 -50 -7 0 -13 7 -13 15 0 8 -4 15 -10
15 -5 0 -10 -9 -10 -20 0 -11 4 -20 9 -20 5 0 7 -9 4 -20 -3 -11 0 -20 6 -20
6 0 11 6 11 14 0 8 9 17 19 21 11 3 18 12 15 19 -3 7 2 19 10 26 16 13 13 30
-5 30 -6 0 -8 -4 -4 -10z"/>
<path d="M4660 2840 c-12 -8 -11 -10 8 -10 12 0 22 5 22 10 0 13 -11 13 -30 0z"/>
<path d="M4941 2823 c-7 -19 -8 -38 -2 -58 l9 -30 1 33 c1 18 7 40 15 48 13
12 16 11 21 -7 4 -11 9 -18 11 -16 8 8 -19 57 -31 57 -7 0 -18 -12 -24 -27z"/>
<path d="M3315 2818 c1 -13 5 -22 8 -20 4 1 7 4 7 7 0 3 0 12 0 20 0 8 -4 15
-8 15 -5 0 -8 -10 -7 -22z"/>
<path d="M3683 2824 c-17 -18 -16 -29 1 -15 11 9 15 9 19 -1 4 -9 6 -7 6 4 1
23 -11 29 -26 12z"/>
<path d="M4175 2832 c8 -16 -12 -42 -32 -42 -7 0 -18 10 -23 23 -8 21 -9 20
-9 -7 -1 -16 2 -26 5 -23 4 3 15 2 24 -3 13 -7 21 -5 30 5 7 8 16 12 21 9 14
-9 10 11 -7 32 -8 10 -13 13 -9 6z"/>
<path d="M3800 2805 c0 -15 4 -24 10 -20 6 3 10 12 10 20 0 8 -4 17 -10 20 -6
4 -10 -5 -10 -20z"/>
<path d="M3870 2820 c0 -5 5 -10 10 -10 6 0 10 5 10 10 0 6 -4 10 -10 10 -5 0
-10 -4 -10 -10z"/>
<path d="M4066 2821 c-4 -7 -5 -15 -2 -18 9 -9 19 4 14 18 -4 11 -6 11 -12 0z"/>
<path d="M3492 2808 c-6 -6 -8 -17 -5 -26 4 -10 2 -13 -5 -8 -6 3 -14 1 -18
-5 -5 -8 -3 -9 6 -4 10 6 11 4 6 -11 -5 -10 -10 -32 -12 -48 -4 -28 -3 -29 11
-10 13 17 14 17 15 2 0 -16 2 -16 28 -1 35 20 35 53 1 65 -21 8 -22 11 -8 21
13 10 14 15 4 24 -9 8 -16 8 -23 1z m17 -89 c-8 -5 -16 -3 -21 4 -6 9 -8 8 -8
-2 0 -8 -2 -12 -5 -9 -3 3 0 17 6 32 l12 26 15 -21 c12 -18 12 -23 1 -30z"/>
<path d="M4700 2810 c-18 -11 -13 -16 23 -25 18 -5 27 -3 27 5 0 7 -6 10 -14
7 -8 -3 -16 0 -18 8 -2 10 -8 12 -18 5z"/>
<path d="M3210 2800 c-13 -8 -12 -10 3 -10 9 0 17 5 17 10 0 12 -1 12 -20 0z"/>
<path d="M3606 2793 c-6 -14 -5 -15 5 -6 7 7 10 15 7 18 -3 3 -9 -2 -12 -12z"/>
<path d="M4630 2800 c0 -5 4 -10 10 -10 5 0 7 -7 4 -15 -4 -8 -2 -15 4 -15 12
0 24 29 16 41 -7 12 -34 11 -34 -1z"/>
<path d="M4770 2795 c0 -6 9 -11 20 -12 11 -1 20 4 20 10 0 7 -9 13 -20 13
-11 0 -20 -5 -20 -11z"/>
<path d="M4967 2803 c-12 -11 -8 -22 12 -33 14 -7 22 -7 26 0 4 6 3 10 -2 9
-22 -4 -32 2 -27 16 6 16 2 20 -9 8z"/>
<path d="M4503 2786 c3 -8 1 -17 -6 -20 -7 -2 -2 -5 11 -5 16 -1 22 5 22 19 0
12 -7 20 -16 20 -10 0 -14 -6 -11 -14z"/>
<path d="M4460 2776 c7 -7 13 -7 20 0 6 6 3 10 -10 10 -13 0 -16 -4 -10 -10z"/>
<path d="M4550 2780 c0 -5 6 -10 14 -10 8 0 18 5 21 10 3 6 -3 10 -14 10 -12
0 -21 -4 -21 -10z"/>
<path d="M3372 2766 c7 -8 15 -12 17 -11 5 6 -10 25 -20 25 -5 0 -4 -6 3 -14z"/>
<path d="M3415 2769 c-4 -6 -5 -12 -2 -15 2 -3 7 2 10 11 7 17 1 20 -8 4z"/>
<path d="M4407 2774 c-8 -8 1 -24 14 -24 5 0 9 7 9 15 0 15 -12 20 -23 9z"/>
<path d="M3720 2757 c0 -9 4 -18 10 -22 5 -3 6 -13 3 -22 -4 -11 -3 -14 5 -9
8 5 14 -3 19 -24 3 -18 12 -34 19 -37 7 -2 10 -12 7 -21 -4 -13 -3 -14 5 -3 7
9 12 10 16 2 4 -6 18 -11 32 -11 13 0 24 -4 24 -10 0 -5 7 -10 16 -10 14 0 14
2 0 15 -8 8 -22 15 -30 15 -10 0 -13 6 -10 18 4 10 2 13 -3 7 -21 -26 -32 -14
-28 33 3 36 2 42 -6 24 -5 -13 -14 -20 -19 -17 -8 5 -7 11 1 21 9 11 8 14 -5
14 -17 0 -48 24 -46 35 1 4 -1 9 -4 13 -3 3 -6 -2 -6 -11z"/>
<path d="M3870 2765 c0 -5 5 -17 10 -25 5 -8 10 -10 10 -5 0 6 -5 17 -10 25
-5 8 -10 11 -10 5z"/>
<path d="M3927 2749 c-7 -27 -9 -25 21 -33 27 -9 28 1 3 33 l-18 24 -6 -24z"/>
<path d="M4032 2755 c-11 -13 -9 -15 11 -15 14 0 24 6 24 15 0 19 -18 19 -35
0z"/>
<path d="M4305 2760 c3 -5 8 -10 11 -10 2 0 4 5 4 10 0 6 -5 10 -11 10 -5 0
-7 -4 -4 -10z"/>
<path d="M4335 2745 c0 -20 4 -24 22 -20 13 2 27 6 32 10 11 6 3 35 -10 35 -4
0 -6 -7 -3 -15 4 -10 0 -15 -11 -15 -11 0 -15 5 -11 15 3 8 0 15 -7 15 -7 0
-12 -11 -12 -25z"/>
<path d="M4607 2756 c-4 -10 -5 -21 -2 -24 9 -9 17 6 13 25 -3 17 -4 17 -11
-1z"/>
<path d="M3321 2747 c-6 -8 -7 -17 -3 -21 4 -4 -2 -14 -13 -23 -19 -15 -19
-15 4 -8 16 5 21 4 17 -4 -4 -6 -3 -11 1 -11 5 0 8 18 8 40 0 46 1 44 -14 27z"/>
<path d="M3356 2745 c-9 -26 -7 -32 5 -12 6 10 9 21 6 23 -2 3 -7 -2 -11 -11z"/>
<path d="M3611 2750 c-14 -3 -27 -12 -29 -19 -3 -10 6 -12 43 -8 50 7 73 17
38 17 -12 0 -23 4 -25 8 -1 5 -14 6 -27 2z"/>
<path d="M4172 2738 c-16 -16 -15 -33 1 -19 8 6 16 8 19 5 3 -2 8 2 11 11 8
18 -14 20 -31 3z"/>
<path d="M4753 2743 c9 -2 15 -8 12 -13 -3 -4 4 -6 15 -3 35 9 30 19 -8 20
-20 1 -29 -1 -19 -4z"/>
<path d="M3390 2729 c0 -5 5 -7 10 -4 6 3 10 8 10 11 0 2 -4 4 -10 4 -5 0 -10
-5 -10 -11z"/>
<path d="M4528 2733 c7 -3 16 -2 19 1 4 3 -2 6 -13 5 -11 0 -14 -3 -6 -6z"/>
<path d="M3370 2725 c0 -5 5 -17 10 -25 5 -8 10 -10 10 -5 0 6 -5 17 -10 25
-5 8 -10 11 -10 5z"/>
<path d="M3416 2713 c-6 -14 -5 -15 5 -6 7 7 10 15 7 18 -3 3 -9 -2 -12 -12z"/>
<path d="M4587 2714 c2 -7 11 -10 19 -7 19 7 18 10 -5 16 -13 3 -18 1 -14 -9z"/>
<path d="M4180 2708 c0 -4 9 -10 20 -13 11 -3 20 -10 20 -14 0 -4 13 -6 30 -3
16 2 27 9 24 14 -3 5 -13 7 -21 3 -13 -4 -13 -3 -4 8 9 12 4 14 -29 13 -22 0
-40 -4 -40 -8z"/>
<path d="M4540 2710 c0 -5 5 -10 11 -10 5 0 7 5 4 10 -3 6 -8 10 -11 10 -2 0
-4 -4 -4 -10z"/>
<path d="M4791 2704 c0 -11 3 -14 6 -6 3 7 2 16 -1 19 -3 4 -6 -2 -5 -13z"/>
<path d="M4843 2693 c-1 -23 0 -24 6 -9 5 13 10 16 15 8 4 -6 2 -22 -4 -34
-10 -21 -10 -21 3 -6 8 10 17 15 21 11 4 -4 4 1 0 11 -5 12 -4 17 3 13 5 -3
10 0 10 8 0 10 -4 12 -12 5 -9 -8 -14 -6 -19 5 -9 24 -22 17 -23 -12z"/>
<path d="M3620 2689 c-7 -11 -9 -23 -7 -26 3 -2 8 5 12 18 5 15 10 18 15 9 5
-8 9 -8 13 4 10 24 -20 20 -33 -5z"/>
<path d="M3837 2689 c5 -16 8 -17 21 -7 13 11 15 10 10 -9 -8 -30 8 -39 22
-13 14 27 -1 48 -34 48 -18 0 -22 -5 -19 -19z"/>
<path d="M4040 2700 c0 -5 6 -10 14 -10 8 0 17 -7 20 -16 8 -22 8 -26 -4 -19
-5 3 -10 1 -10 -4 0 -14 10 -14 30 -1 13 8 13 11 1 19 -7 5 -11 13 -7 19 3 5
-1 13 -10 16 -23 9 -34 7 -34 -4z"/>
<path d="M3527 2693 c-12 -12 -7 -22 16 -34 22 -12 22 -12 4 9 -14 15 -15 21
-5 25 7 3 8 6 2 6 -6 1 -14 -2 -17 -6z"/>
<path d="M3674 2682 c3 -5 2 -12 -4 -14 -6 -2 -6 -9 0 -17 6 -12 12 -12 23 -3
7 7 17 8 22 4 4 -4 6 0 3 8 -3 8 -9 15 -14 15 -5 0 -15 4 -23 9 -9 6 -12 5 -7
-2z"/>
<path d="M3736 2675 c-9 -26 -7 -32 5 -12 6 10 9 21 6 23 -2 3 -7 -2 -11 -11z"/>
<path d="M3980 2680 c0 -8 -3 -10 -7 -7 -3 4 -12 2 -19 -4 -8 -7 -14 -7 -19 1
-9 14 -25 13 -25 -2 0 -7 7 -21 15 -31 13 -18 14 -17 28 10 l15 28 -1 -27 c-1
-14 -5 -24 -9 -22 -3 2 -4 -5 -1 -17 4 -13 11 -18 21 -14 12 4 13 -1 8 -27 -4
-24 -3 -29 4 -18 15 24 12 62 -7 76 -15 10 -16 15 -5 26 10 10 14 9 18 -9 5
-19 50 -41 61 -30 4 5 -27 39 -60 66 -13 11 -17 11 -17 1z"/>
<path d="M4806 2675 c-9 -26 -7 -32 5 -12 6 10 9 21 6 23 -2 3 -7 -2 -11 -11z"/>
<path d="M4390 2660 c6 -11 13 -20 16 -20 2 0 0 9 -6 20 -6 11 -13 20 -16 20
-2 0 0 -9 6 -20z"/>
<path d="M4417 2670 c7 -8 20 -15 29 -16 9 -1 13 1 9 4 -4 4 -10 7 -13 7 -4 0
-14 4 -22 9 -12 7 -13 6 -3 -4z"/>
<path d="M4147 2646 c10 -13 19 -23 21 -21 7 6 -19 45 -29 45 -5 0 -2 -11 8
-24z"/>
<path d="M4236 2663 c-11 -12 -6 -19 14 -19 11 0 20 3 20 7 0 10 -27 19 -34
12z"/>
<path d="M4480 2660 c0 -5 4 -10 9 -10 6 0 13 5 16 10 3 6 -1 10 -9 10 -9 0
-16 -4 -16 -10z"/>
<path d="M3586 2643 c-6 -14 -5 -15 5 -6 7 7 10 15 7 18 -3 3 -9 -2 -12 -12z"/>
<path d="M4313 2643 c1 -63 -3 -71 -25 -66 -22 5 -22 5 -6 -12 13 -14 20 -16
31 -7 8 7 18 8 22 4 8 -7 6 0 -11 42 -6 16 -4 18 9 13 16 -6 16 -5 1 18 -19
30 -21 30 -21 8z"/>
<path d="M4600 2639 c0 -5 5 -7 10 -4 6 3 10 8 10 11 0 2 -4 4 -10 4 -5 0 -10
-5 -10 -11z"/>
<path d="M3715 2630 c-5 -7 -20 -10 -39 -6 -29 5 -30 5 -12 -9 11 -8 23 -15
26 -15 13 0 45 29 38 35 -3 3 -9 1 -13 -5z"/>
<path d="M4180 2623 c0 -7 4 -13 9 -13 5 0 11 6 14 13 3 8 -1 14 -9 14 -8 0
-14 -6 -14 -14z"/>
<path d="M4429 2639 c-3 -17 -8 -37 -14 -54 -5 -14 -2 -13 8 4 11 18 16 20 20
10 3 -8 5 -4 3 8 -2 20 -15 44 -17 32z"/>
<path d="M4640 2631 c0 -6 4 -13 10 -16 6 -3 7 1 4 9 -7 18 -14 21 -14 7z"/>
<path d="M3895 2621 c-3 -6 4 -15 15 -21 20 -11 21 -10 10 9 -12 23 -16 25
-25 12z"/>
<path d="M4126 2615 c-3 -8 -3 -22 1 -30 6 -17 -17 -17 -28 -1 -4 4 -16 -1
-27 -12 -14 -14 -22 -17 -26 -9 -3 8 -5 6 -5 -3 -1 -13 -2 -13 -11 0 -7 12 -9
10 -7 -7 0 -12 4 -20 8 -17 4 2 10 -2 12 -8 4 -10 6 -10 6 0 1 7 6 10 11 7 6
-4 10 -3 9 2 -4 21 3 29 26 29 17 0 24 -4 20 -14 -3 -8 0 -10 7 -6 8 5 9 2 5
-9 -3 -10 -3 -17 2 -17 4 0 8 25 7 55 0 30 -1 55 -2 55 -1 0 -4 -7 -8 -15z"/>
<path d="M4396 2617 c3 -10 9 -15 12 -12 3 3 0 11 -7 18 -10 9 -11 8 -5 -6z"/>
<path d="M4546 2622 c-4 -7 -2 -12 5 -12 8 0 9 -3 0 -13 -6 -8 -8 -17 -4 -20
11 -12 21 -7 19 9 0 9 7 18 17 20 11 1 22 5 25 9 4 3 -5 4 -20 1 -15 -2 -28 0
-31 7 -2 8 -5 8 -11 -1z"/>
<path d="M4361 2604 c0 -11 3 -14 6 -6 3 7 2 16 -1 19 -3 4 -6 -2 -5 -13z"/>
<path d="M3760 2586 c5 -5 25 -4 47 2 l38 10 -47 -2 c-26 0 -43 -5 -38 -10z"/>
<path d="M4585 2580 c-3 -6 1 -7 9 -4 18 7 21 14 7 14 -6 0 -13 -4 -16 -10z"/>
<path d="M4205 2571 c-3 -5 -1 -12 5 -16 5 -3 10 1 10 9 0 18 -6 21 -15 7z"/>
<path d="M3803 2563 c9 -2 23 -2 30 0 6 3 -1 5 -18 5 -16 0 -22 -2 -12 -5z"/>
<path d="M3936 2561 c-4 -7 -5 -15 -2 -18 9 -9 19 4 14 18 -4 11 -6 11 -12 0z"/>
<path d="M4155 2542 c-3 -8 -3 -17 0 -20 3 -3 5 0 5 6 0 8 7 9 25 2 19 -7 23
-6 19 4 -8 21 -42 26 -49 8z"/>
<path d="M1935 3000 c-3 -5 -3 -15 1 -22 4 -7 3 -8 -5 -4 -9 6 -11 -12 -10
-75 3 -71 6 -86 27 -111 17 -20 27 -26 32 -17 4 6 12 9 16 6 5 -2 19 -1 31 4
18 6 21 14 17 41 -2 18 -6 53 -9 77 -2 24 -8 47 -12 50 -5 3 -16 18 -26 34
-17 27 -50 36 -62 17z"/>
<path d="M4906 1075 c4 -8 11 -15 16 -15 6 0 5 6 -2 15 -7 8 -14 15 -16 15 -2
0 -1 -7 2 -15z"/>
<path d="M3560 600 c0 -5 5 -10 11 -10 5 0 7 5 4 10 -3 6 -8 10 -11 10 -2 0
-4 -4 -4 -10z"/>
<path d="M3618 553 c7 -3 16 -2 19 1 4 3 -2 6 -13 5 -11 0 -14 -3 -6 -6z"/>
<path d="M4295 5833 c-11 -3 -26 -12 -34 -21 -10 -12 -15 -14 -18 -5 -4 10
-10 10 -26 1 -12 -6 -22 -10 -22 -8 0 5 -82 -47 -105 -67 -10 -9 -17 -20 -14
-25 3 -4 1 -8 -5 -8 -15 0 -51 -41 -51 -59 0 -8 -7 -22 -16 -32 -19 -21 -11
-54 13 -56 10 -1 29 14 43 33 14 19 52 54 85 77 63 44 63 44 96 46 11 0 17 5
14 11 -10 16 35 21 160 16 120 -5 175 -15 201 -37 8 -6 25 -9 38 -7 20 4 36
-7 85 -59 34 -36 59 -69 56 -73 -3 -5 1 -12 9 -17 7 -4 25 -25 39 -45 20 -30
27 -35 36 -24 6 7 22 11 35 9 19 -4 24 0 28 22 7 36 -7 97 -26 111 -9 6 -16
16 -16 21 0 12 -40 48 -62 56 -10 4 -18 12 -18 19 0 7 -14 19 -30 26 -17 8
-28 17 -25 22 5 9 -58 34 -85 34 -8 0 -17 3 -20 6 -20 25 -288 49 -365 33z"/>
<path d="M3066 5809 c3 -5 -1 -9 -8 -10 -7 0 -32 -1 -54 -3 -23 -1 -48 -7 -56
-14 -8 -6 -17 -9 -20 -6 -3 3 -18 -6 -33 -20 -15 -14 -31 -23 -36 -20 -5 3 -9
1 -9 -5 0 -5 3 -11 8 -14 4 -2 1 -2 -6 -1 -17 5 -63 -17 -57 -27 3 -4 -3 -10
-12 -13 -18 -6 -80 -114 -75 -130 1 -4 -4 -13 -13 -20 -16 -11 -28 -86 -18
-112 9 -23 32 -16 52 16 10 16 20 27 24 24 3 -3 4 2 3 13 -2 10 5 24 15 31 11
7 19 19 19 27 0 7 9 17 20 20 11 3 20 10 20 15 0 18 56 65 103 87 26 13 49 22
51 20 1 -1 10 4 18 11 24 19 104 25 188 13 41 -6 84 -12 95 -14 11 -1 24 -8
28 -14 4 -7 17 -13 27 -13 11 0 20 -4 20 -10 0 -5 6 -10 14 -10 8 0 40 -31 72
-69 31 -38 65 -72 75 -74 25 -7 49 17 42 43 -3 11 0 20 6 20 22 0 10 36 -24
73 -20 20 -39 37 -44 37 -6 0 -13 9 -16 20 -6 19 -62 56 -77 52 -5 -1 -8 3 -8
9 0 6 -6 9 -14 6 -8 -3 -16 -2 -18 3 -2 5 -17 10 -34 12 -20 1 -30 7 -27 14 3
8 -3 11 -14 10 -10 -2 -30 3 -45 10 -17 9 -29 10 -33 4 -4 -6 -11 -8 -16 -4
-22 13 -141 25 -133 13z m-96 -33 c0 -3 -4 -8 -10 -11 -5 -3 -10 -1 -10 4 0 6
5 11 10 11 6 0 10 -2 10 -4z"/>
<path d="M4190 5470 c0 -4 -18 -7 -40 -7 -38 0 -141 -39 -148 -56 -2 -4 -7 -5
-12 -2 -4 3 -13 -9 -19 -26 -6 -18 -15 -28 -22 -24 -14 9 -79 -63 -79 -87 0
-10 -5 -18 -11 -18 -5 0 -7 -4 -4 -10 3 -5 1 -10 -4 -10 -6 0 -11 -9 -11 -19
0 -11 -5 -21 -12 -23 -6 -2 -13 -22 -14 -44 -1 -21 -6 -57 -10 -79 -10 -52 -7
-134 4 -149 5 -6 15 -29 22 -51 22 -69 97 -160 173 -210 39 -27 81 -47 98 -47
15 -1 27 -4 25 -7 -2 -3 25 -6 60 -6 47 0 67 4 74 15 7 10 10 11 10 2 0 -8 8
-10 23 -7 13 4 30 7 38 8 29 5 70 40 64 55 -4 12 -3 13 10 2 9 -8 15 -8 15 -2
0 6 10 14 22 18 35 11 112 109 103 132 -2 6 -1 12 4 12 13 0 41 99 45 160 6
93 -36 259 -64 252 -6 -1 -9 2 -5 8 3 6 0 17 -7 24 -7 8 -26 33 -43 56 -19 27
-34 39 -44 35 -9 -3 -12 -3 -9 1 11 11 -50 62 -82 69 -17 4 -30 10 -30 14 0 4
-8 7 -17 8 -10 1 -37 6 -60 11 -24 5 -43 6 -43 2z m-103 -276 c-3 -3 -12 -4
-19 -1 -8 3 -5 6 6 6 11 1 17 -2 13 -5z m104 -54 c40 -17 56 -68 34 -113 -20
-43 -100 -122 -109 -108 -4 5 -13 8 -20 5 -17 -6 -62 121 -49 139 5 7 10 23
11 36 2 52 61 70 133 41z"/>
<path d="M3068 5453 c-16 -2 -28 -9 -28 -14 0 -5 -5 -9 -11 -9 -5 0 -8 4 -4 9
14 24 -79 -26 -105 -56 -16 -18 -36 -33 -43 -33 -8 0 -22 -21 -31 -47 -10 -27
-28 -69 -42 -94 -13 -25 -26 -57 -28 -70 -3 -13 -5 -24 -6 -24 -1 0 -3 -13 -5
-30 -1 -16 -4 -34 -6 -40 -2 -5 1 -30 5 -55 5 -25 8 -53 7 -62 -1 -10 2 -18 8
-18 6 0 9 -10 7 -22 -1 -13 5 -37 15 -55 10 -18 17 -33 15 -33 -7 0 46 -61 82
-95 30 -30 100 -70 132 -77 8 -2 18 -7 21 -11 6 -9 151 -12 179 -4 8 2 32 7
53 12 20 4 37 11 37 16 0 5 4 8 8 6 14 -4 112 67 118 86 3 9 8 16 12 14 4 -2
17 7 29 20 12 13 20 23 16 23 -3 0 0 7 7 15 6 8 8 20 4 26 -4 7 -3 9 3 6 6 -4
13 2 16 13 3 13 1 18 -6 13 -9 -5 -9 -3 -1 8 6 8 20 38 33 67 17 42 19 56 10
73 -8 16 -8 20 1 14 9 -6 9 -2 0 15 -6 12 -9 28 -6 35 2 7 -3 40 -13 72 -10
32 -19 63 -21 68 -8 29 -24 55 -33 55 -6 0 -7 3 -3 7 8 9 -54 73 -72 73 -7 0
-11 4 -8 9 9 13 -22 34 -39 27 -9 -3 -13 -2 -10 4 8 12 -72 53 -87 44 -7 -5
-9 -2 -6 8 5 12 -9 14 -86 15 -50 0 -103 -1 -118 -4z m163 -331 c26 -24 32
-37 32 -72 0 -23 -6 -46 -13 -50 -7 -4 -9 -13 -6 -19 4 -6 2 -11 -5 -11 -7 0
-22 -9 -33 -19 -42 -39 -104 -24 -128 31 -7 15 -17 28 -21 28 -5 0 -5 6 0 13
4 6 9 29 10 50 4 62 14 72 77 75 50 3 59 0 87 -26z"/>
<path d="M6841 3408 c-16 -26 -24 -168 -9 -168 6 0 5 -6 -1 -14 -10 -12 -9
-21 3 -43 22 -42 27 -16 24 125 -3 109 -4 120 -17 100z"/>
<path d="M1445 800 c3 -5 -1 -10 -9 -10 -11 0 -16 -10 -17 -27 0 -16 -2 -38
-3 -50 -2 -13 2 -19 7 -16 6 4 8 0 4 -10 -4 -12 -1 -15 14 -12 17 3 19 2 9
-10 -9 -11 -8 -20 7 -39 10 -14 23 -26 29 -26 6 0 16 -12 22 -26 7 -14 17 -22
22 -19 6 4 17 1 25 -5 8 -7 22 -9 31 -6 12 5 15 2 10 -9 -3 -9 -2 -13 4 -10 6
3 10 2 10 -3 0 -5 6 -9 14 -9 13 0 13 5 1 34 -8 19 -10 31 -5 28 4 -3 11 1 14
7 3 7 3 2 0 -11 -5 -17 -3 -21 7 -16 9 6 11 4 6 -8 -3 -9 -2 -19 3 -22 5 -3 7
11 4 31 -3 22 -1 33 6 29 5 -3 10 -15 10 -26 0 -31 18 -59 35 -53 8 4 13 10
10 14 -3 5 0 12 6 16 7 4 9 3 6 -3 -7 -12 17 -25 27 -16 3 4 6 14 6 24 0 11
10 21 25 25 33 8 32 25 -4 63 -30 32 -60 41 -62 19 0 -7 -4 -3 -9 10 -5 12
-14 22 -19 22 -5 0 -7 -10 -5 -22 2 -13 -1 -9 -7 9 -14 40 -60 62 -87 42 -15
-12 -16 -12 -5 2 11 13 9 19 -7 34 -16 15 -22 15 -35 5 -10 -8 -15 -9 -15 -1
0 6 5 11 10 11 6 0 10 5 10 10 0 6 -13 10 -30 10 -32 0 -37 -8 -17 -29 10 -10
9 -12 -3 -9 -8 2 -14 -3 -12 -10 1 -8 -2 -11 -8 -7 -8 5 -8 11 0 20 8 9 7 17
-3 27 -7 7 -12 19 -9 26 2 6 -4 12 -13 12 -9 0 -13 -4 -10 -10z m0 -90 c1 -10
-2 -17 -7 -14 -4 3 -8 15 -8 26 0 26 13 15 15 -12z m155 -35 c0 -1 -9 -5 -19
-8 -13 -3 -18 -1 -14 9 4 10 33 10 33 -1z m-93 -1 c-3 -4 -2 -14 3 -23 14 -27
-3 -44 -19 -20 -9 16 -10 19 0 13 9 -5 11 -2 6 8 -5 15 0 28 11 28 3 0 2 -3
-1 -6z m118 -19 c-5 -2 -23 -6 -38 -9 -17 -4 -25 -11 -21 -18 4 -7 3 -8 -4 -4
-17 10 -15 24 6 29 20 5 72 7 57 2z"/>
<path d="M910 630 c-12 -8 -12 -10 5 -10 15 0 17 -2 6 -9 -8 -5 -11 -17 -7
-32 7 -24 7 -24 -8 1 -15 25 -15 25 -16 3 0 -13 -3 -23 -7 -23 -5 0 -8 -20 -8
-44 0 -24 4 -42 8 -39 5 3 6 -4 3 -15 -7 -20 17 -80 36 -93 5 -3 10 -19 12
-36 3 -17 13 -40 25 -52 11 -11 27 -34 36 -50 8 -17 22 -31 31 -31 8 0 13 -4
9 -9 -8 -14 13 -24 57 -26 21 -2 42 -6 46 -10 4 -4 -3 -5 -15 -2 -13 3 -23 1
-23 -4 0 -5 9 -9 20 -9 10 0 24 -9 30 -21 14 -25 51 -40 68 -27 6 6 12 7 12 2
0 -5 5 -2 11 6 8 12 9 11 7 -5 -2 -14 2 -19 12 -16 8 2 21 4 28 4 7 0 10 7 7
16 -4 11 0 10 15 -4 20 -18 21 -20 3 -33 -16 -11 -14 -12 19 -9 21 2 35 1 33
-3 -6 -9 83 -22 96 -14 5 3 9 14 9 24 0 10 5 22 12 26 8 5 9 -2 5 -26 -6 -27
-4 -31 9 -26 12 4 15 2 10 -9 -5 -13 -2 -13 19 1 14 9 32 13 45 9 26 -8 51 11
43 33 -4 14 -3 15 6 2 5 -8 14 -11 18 -6 4 4 -3 16 -16 27 -13 10 -18 19 -12
19 5 0 19 -10 30 -21 l20 -22 -3 29 c-3 23 -10 30 -36 37 -44 11 -80 -5 -75
-32 2 -11 0 -23 -4 -25 -7 -4 -7 17 -2 57 1 4 8 7 16 7 8 0 15 5 15 11 0 6 -8
8 -19 4 -14 -4 -19 -1 -17 12 1 13 -6 18 -25 18 -19 -1 -25 3 -21 14 3 9 1 12
-6 7 -6 -3 -13 -2 -17 3 -8 13 -35 2 -35 -14 0 -7 5 -15 12 -17 9 -3 9 -6 0
-12 -7 -4 -12 -2 -12 4 0 6 -4 9 -9 6 -5 -3 -11 7 -14 22 -4 21 -18 33 -59 52
-29 13 -63 24 -76 23 -12 -1 -20 2 -18 6 7 11 -38 31 -51 23 -5 -4 -13 -14
-16 -22 -4 -12 -6 -11 -6 3 -1 9 -7 17 -13 17 -9 0 -8 4 2 10 9 6 11 10 3 10
-7 0 -10 7 -6 17 4 11 3 14 -5 9 -7 -4 -12 -2 -12 6 0 7 -9 19 -19 25 -12 8
-18 20 -16 33 2 11 0 18 -5 15 -10 -6 -8 -24 4 -44 6 -9 -1 -6 -16 5 -14 10
-24 24 -21 29 2 6 -2 2 -10 -8 -13 -15 -15 -16 -21 -2 -3 8 0 15 7 15 7 0 4 5
-5 11 -10 5 -18 17 -18 25 0 9 -5 12 -12 8 -6 -4 -8 -3 -5 3 4 6 1 16 -7 22
-15 13 -19 64 -3 54 5 -3 8 0 5 8 -3 8 -10 14 -16 14 -6 0 -17 6 -24 14 -8 9
-8 11 -1 7 6 -3 14 -2 18 4 3 5 1 10 -4 10 -6 0 -10 3 -10 8 5 28 -30 41 -61
22z m25 -89 c-3 -5 -1 -12 5 -16 5 -3 10 -1 10 5 0 6 5 8 10 5 6 -4 4 -12 -5
-22 -9 -9 -14 -22 -11 -29 3 -7 1 -16 -5 -19 -5 -4 -7 -11 -3 -16 3 -6 -3 -5
-15 3 -19 12 -20 14 -6 25 12 8 13 13 5 18 -8 5 -8 11 -2 17 6 6 8 17 5 24 -3
8 0 14 7 14 6 0 9 -4 5 -9z m59 -60 c3 -5 -1 -11 -9 -15 -8 -3 -17 0 -21 6 -4
7 -3 8 4 4 7 -4 12 -2 12 3 0 13 7 14 14 2z m-10 -66 c-7 -16 -24 -21 -24 -6
0 8 7 13 27 20 1 1 0 -6 -3 -14z m36 -25 c0 -5 -4 -10 -9 -10 -6 0 -13 5 -16
10 -3 6 1 10 9 10 9 0 16 -4 16 -10z m34 -60 c-6 -6 -10 -3 -10 10 0 13 4 16
10 10 7 -7 7 -13 0 -20z m79 23 c-7 -2 -19 -2 -25 0 -7 3 -2 5 12 5 14 0 19
-2 13 -5z m-8 -23 c-3 -5 -12 -10 -18 -10 -7 0 -6 4 3 10 19 12 23 12 15 0z
m16 -23 c-10 -9 -11 -8 -5 6 3 10 9 15 12 12 3 -3 0 -11 -7 -18z m-17 -26 c4
-5 -3 -7 -14 -4 -23 6 -26 13 -6 13 8 0 17 -4 20 -9z m213 -37 c-3 -3 -12 -4
-19 -1 -8 3 -5 6 6 6 11 1 17 -2 13 -5z m-214 -43 c-4 -4 -11 -10 -14 -14 -4
-4 -6 4 -6 18 0 21 2 23 14 14 8 -7 10 -15 6 -18z m250 -2 c-4 -15 -9 -17 -17
-9 -8 8 -7 13 4 20 8 5 16 10 17 10 0 0 -1 -9 -4 -21z m-120 -40 c-4 -15 -8
-17 -14 -8 -8 14 -3 29 11 29 4 0 6 -9 3 -21z m77 -45 c0 -8 -5 -12 -10 -9 -6
4 -8 11 -5 16 9 14 15 11 15 -7z m257 -7 c0 -8 -6 -14 -14 -14 -9 0 -10 4 -2
14 6 7 12 13 14 13 1 0 2 -6 2 -13z m-47 -53 c0 -2 -7 -4 -15 -4 -8 0 -15 4
-15 10 0 5 7 7 15 4 8 -4 15 -8 15 -10z"/>
<path d="M925 510 c-3 -5 -1 -10 4 -10 6 0 11 5 11 10 0 6 -2 10 -4 10 -3 0
-8 -4 -11 -10z"/>
<path d="M1000 510 c0 -15 21 -23 32 -12 6 6 2 11 -11 15 -12 3 -21 1 -21 -3z"/>
</g>
</svg>
